<svg id="my-svg" width="578.40625" xmlns="http://www.w3.org/2000/svg" xmlns:xlink="http://www.w3.org/1999/xlink" class="erDiagram" height="555.75" viewBox="0 0 578.40625 555.75" role="graphics-document document" aria-roledescription="er" style="background-color: white;"><style>#my-svg{font-family:Arial,sans-serif;font-size:14px;fill:#000000;}@keyframes edge-animation-frame{from{stroke-dashoffset:0;}}@keyframes dash{to{stroke-dashoffset:0;}}#my-svg .edge-animation-slow{stroke-dasharray:9,5!important;stroke-dashoffset:900;animation:dash 50s linear infinite;stroke-linecap:round;}#my-svg .edge-animation-fast{stroke-dasharray:9,5!important;stroke-dashoffset:900;animation:dash 20s linear infinite;stroke-linecap:round;}#my-svg .error-icon{fill:#552222;}#my-svg .error-text{fill:#552222;stroke:#552222;}#my-svg .edge-thickness-normal{stroke-width:1px;}#my-svg .edge-thickness-thick{stroke-width:3.5px;}#my-svg .edge-pattern-solid{stroke-dasharray:0;}#my-svg .edge-thickness-invisible{stroke-width:0;fill:none;}#my-svg .edge-pattern-dashed{stroke-dasharray:3;}#my-svg .edge-pattern-dotted{stroke-dasharray:2;}#my-svg .marker{fill:#000000;stroke:#000000;}#my-svg .marker.cross{stroke:#000000;}#my-svg svg{font-family:Arial,sans-serif;font-size:14px;}#my-svg p{margin:0;}#my-svg .entityBox{fill:#eee;stroke:#999;}#my-svg .relationshipLabelBox{fill:hsl(-160, 0%, 93.3333333333%);opacity:0.7;background-color:hsl(-160, 0%, 93.3333333333%);}#my-svg .relationshipLabelBox rect{opacity:0.5;}#my-svg .labelBkg{background-color:rgba(237.9999999999, 237.9999999999, 237.9999999999, 0.5);}#my-svg .edgeLabel{background-color:white;}#my-svg .edgeLabel .label rect{fill:white;}#my-svg .edgeLabel .label text{fill:#000000;}#my-svg .edgeLabel .label{fill:#999;font-size:14px;}#my-svg .label{font-family:Arial,sans-serif;color:#000000;}#my-svg .edge-pattern-dashed{stroke-dasharray:8,8;}#my-svg .node rect,#my-svg .node circle,#my-svg .node ellipse,#my-svg .node polygon{fill:#eee;stroke:#999;stroke-width:1px;}#my-svg .relationshipLine{stroke:#000000;stroke-width:1px;fill:none;}#my-svg .marker{fill:none!important;stroke:#000000!important;stroke-width:1;}#my-svg [data-look=neo].labelBkg{background-color:rgba(237.9999999999, 237.9999999999, 237.9999999999, 0.5);}#my-svg .node .neo-node{stroke:#999;}#my-svg [data-look="neo"].node rect,#my-svg [data-look="neo"].cluster rect,#my-svg [data-look="neo"].node polygon{stroke:url(#my-svg-gradient);filter:drop-shadow( 1px 2px 2px rgba(185,185,185,1));}#my-svg [data-look="neo"].node path{stroke:url(#my-svg-gradient);stroke-width:1px;}#my-svg [data-look="neo"].node .outer-path{filter:drop-shadow( 1px 2px 2px rgba(185,185,185,1));}#my-svg [data-look="neo"].node .neo-line path{stroke:#999;filter:none;}#my-svg [data-look="neo"].node circle{stroke:url(#my-svg-gradient);filter:drop-shadow( 1px 2px 2px rgba(185,185,185,1));}#my-svg [data-look="neo"].node circle .state-start{fill:#000000;}#my-svg [data-look="neo"].icon-shape .icon{fill:url(#my-svg-gradient);filter:drop-shadow( 1px 2px 2px rgba(185,185,185,1));}#my-svg [data-look="neo"].icon-shape .icon-neo path{stroke:url(#my-svg-gradient);filter:drop-shadow( 1px 2px 2px rgba(185,185,185,1));}#my-svg :root{--mermaid-font-family:"trebuchet ms",verdana,arial,sans-serif;}</style><g><defs><marker id="my-svg_er-onlyOneStart" class="marker onlyOne er" refX="0" refY="9" markerWidth="18" markerHeight="18" orient="auto"><path d="M9,0 L9,18 M15,0 L15,18"/></marker></defs><defs><marker id="my-svg_er-onlyOneEnd" class="marker onlyOne er" refX="18" refY="9" markerWidth="18" markerHeight="18" orient="auto"><path d="M3,0 L3,18 M9,0 L9,18"/></marker></defs><defs><marker id="my-svg_er-zeroOrOneStart" class="marker zeroOrOne er" refX="0" refY="9" markerWidth="30" markerHeight="18" orient="auto"><circle fill="white" cx="21" cy="9" r="6"/><path d="M9,0 L9,18"/></marker></defs><defs><marker id="my-svg_er-zeroOrOneEnd" class="marker zeroOrOne er" refX="30" refY="9" markerWidth="30" markerHeight="18" orient="auto"><circle fill="white" cx="9" cy="9" r="6"/><path d="M21,0 L21,18"/></marker></defs><defs><marker id="my-svg_er-oneOrMoreStart" class="marker oneOrMore er" refX="18" refY="18" markerWidth="45" markerHeight="36" orient="auto"><path d="M0,18 Q 18,0 36,18 Q 18,36 0,18 M42,9 L42,27"/></marker></defs><defs><marker id="my-svg_er-oneOrMoreEnd" class="marker oneOrMore er" refX="27" refY="18" markerWidth="45" markerHeight="36" orient="auto"><path d="M3,9 L3,27 M9,18 Q27,0 45,18 Q27,36 9,18"/></marker></defs><defs><marker id="my-svg_er-zeroOrMoreStart" class="marker zeroOrMore er" refX="18" refY="18" markerWidth="57" markerHeight="36" orient="auto"><circle fill="white" cx="48" cy="18" r="6"/><path d="M0,18 Q18,0 36,18 Q18,36 0,18"/></marker></defs><defs><marker id="my-svg_er-zeroOrMoreEnd" class="marker zeroOrMore er" refX="39" refY="18" markerWidth="57" markerHeight="36" orient="auto"><circle fill="white" cx="9" cy="18" r="6"/><path d="M21,18 Q39,0 57,18 Q39,36 21,18"/></marker></defs><g class="root"><g class="clusters"/><g class="edgePaths"><path d="M193.199,73.877L171.65,84.814C150.1,95.751,107.001,117.626,87.515,140.292C68.03,162.958,72.157,186.417,74.22,198.146L76.284,209.875" id="my-svg-id_entity-User-0_entity-Notification-1_0" class="edge-thickness-normal edge-pattern-solid relationshipLine" style="undefined;;;undefined" data-edge="true" data-et="edge" data-id="id_entity-User-0_entity-Notification-1_0" data-points="W3sieCI6MTkzLjE5OTIxODc1LCJ5Ijo3My44NzY5MDYzMTgwODI3OX0seyJ4Ijo2My45MDIzNDM3NSwieSI6MTM5LjV9LHsieCI6NzYuMjgzODg1Mzg4MjgzMzgsInkiOjIwOS44NzV9XQ==" data-look="classic" marker-start="url(#my-svg_er-onlyOneStart)" marker-end="url(#my-svg_er-zeroOrMoreEnd)"/><path d="M293.199,69.936L320.243,81.53C347.286,93.124,401.374,116.312,428.417,136.323C455.461,156.333,455.461,173.167,455.461,181.583L455.461,190" id="my-svg-id_entity-User-0_entity-Invitation-2_1" class="edge-thickness-normal edge-pattern-solid relationshipLine" style="undefined;;;undefined" data-edge="true" data-et="edge" data-id="id_entity-User-0_entity-Invitation-2_1" data-points="W3sieCI6MjkzLjE5OTIxODc1LCJ5Ijo2OS45MzU4MDExNzQxMTA2OH0seyJ4Ijo0NTUuNDYwOTM3NSwieSI6MTM5LjV9LHsieCI6NDU1LjQ2MDkzNzUsInkiOjE5MH1d" data-look="classic" marker-start="url(#my-svg_er-onlyOneStart)" marker-end="url(#my-svg_er-zeroOrMoreEnd)"/><path d="M200.516,209.965L207.63,198.221C214.743,186.477,228.971,162.988,236.085,142.828C243.199,122.667,243.199,105.833,243.199,97.417L243.199,89" id="my-svg-id_entity-Notification-1_entity-User-0_2" class="edge-thickness-normal edge-pattern-solid relationshipLine" style="undefined;;;undefined" data-edge="true" data-et="edge" data-id="id_entity-Notification-1_entity-User-0_2" data-points="W3sieCI6MjAwLjUxNTYyNSwieSI6MjA5Ljk2NTMxMDM4MjYzNjU3fSx7IngiOjI0My4xOTkyMTg3NSwieSI6MTM5LjV9LHsieCI6MjQzLjE5OTIxODc1LCJ5Ijo4OX1d" data-look="classic" marker-start="url(#my-svg_er-onlyOneStart)" marker-end="url(#my-svg_er-oneOrMoreEnd)"/></g><g class="edgeLabels"><g class="edgeLabel" transform="translate(63.90234375, 139.5)"><g class="label" data-id="id_entity-User-0_entity-Notification-1_0" transform="translate(-26.0703125, -10.5)"><foreignObject width="52.140625" height="21"><div xmlns="http://www.w3.org/1999/xhtml" class="labelBkg" style="display: table-cell; white-space: nowrap; line-height: 1.5; max-width: 200px; text-align: center;"><span class="edgeLabel"><p>receives</p></span></div></foreignObject></g></g><g class="edgeLabel" transform="translate(455.4609375, 139.5)"><g class="label" data-id="id_entity-User-0_entity-Invitation-2_1" transform="translate(-18.6796875, -10.5)"><foreignObject width="37.359375" height="21"><div xmlns="http://www.w3.org/1999/xhtml" class="labelBkg" style="display: table-cell; white-space: nowrap; line-height: 1.5; max-width: 200px; text-align: center;"><span class="edgeLabel"><p>sends</p></span></div></foreignObject></g></g><g class="edgeLabel" transform="translate(243.19921875, 139.5)"><g class="label" data-id="id_entity-Notification-1_entity-User-0_2" transform="translate(-34.640625, -10.5)"><foreignObject width="69.28125" height="21"><div xmlns="http://www.w3.org/1999/xhtml" class="labelBkg" style="display: table-cell; white-space: nowrap; line-height: 1.5; max-width: 200px; text-align: center;"><span class="edgeLabel"><p>created_by</p></span></div></foreignObject></g></g></g><g class="nodes"><g class="node default" id="my-svg-entity-User-0" data-look="classic" transform="translate(243.19921875, 48.5)"><rect class="basic label-container" style="" x="-50" y="-40.5" width="100" height="81"/><g class="label" style="" transform="translate(-14.78125, -10.5)"><rect/><foreignObject width="29.5625" height="21"><div xmlns="http://www.w3.org/1999/xhtml" style="display: table-cell; white-space: nowrap; line-height: 1.5; max-width: 100px; text-align: center;"><span class="nodeLabel markdown-node-label"><p>User</p></span></div></foreignObject></g></g><g class="node default" id="my-svg-entity-Notification-1" data-look="classic" transform="translate(104.2578125, 368.875)"><g class="outer-path" style=""><path d="M-96.2578125 -159 L96.2578125 -159 L96.2578125 159 L-96.2578125 159" stroke="none" stroke-width="0" fill="#eee"/><path d="M-96.2578125 -159 C-24.212415969620352 -159, 47.832980560759296 -159, 96.2578125 -159 M-96.2578125 -159 C-57.701076497002646 -159, -19.14434049400529 -159, 96.2578125 -159 M96.2578125 -159 C96.2578125 -61.68551074221591, 96.2578125 35.62897851556818, 96.2578125 159 M96.2578125 -159 C96.2578125 -43.821000029575515, 96.2578125 71.35799994084897, 96.2578125 159 M96.2578125 159 C22.858495723697473 159, -50.540821052605054 159, -96.2578125 159 M96.2578125 159 C44.0507823983883 159, -8.1562477032234 159, -96.2578125 159 M-96.2578125 159 C-96.2578125 77.91014823478992, -96.2578125 -3.17970353042017, -96.2578125 -159 M-96.2578125 159 C-96.2578125 49.49760140311311, -96.2578125 -60.00479719377378, -96.2578125 -159" stroke="#999" stroke-width="1.3" fill="none" stroke-dasharray="0 0"/></g><g style="" class="row-rect-odd"><path d="M-96.2578125 -119.25 L96.2578125 -119.25 L96.2578125 -79.5 L-96.2578125 -79.5" stroke="none" stroke-width="0" fill="hsl(0, 0%, 100%)"/><path d="M-96.2578125 -119.25 C-22.735315559111 -119.25, 50.787181381778 -119.25, 96.2578125 -119.25 M-96.2578125 -119.25 C-31.999793643715975 -119.25, 32.25822521256805 -119.25, 96.2578125 -119.25 M96.2578125 -119.25 C96.2578125 -106.19396766920102, 96.2578125 -93.13793533840202, 96.2578125 -79.5 M96.2578125 -119.25 C96.2578125 -109.51120529069259, 96.2578125 -99.77241058138517, 96.2578125 -79.5 M96.2578125 -79.5 C19.310945138644442 -79.5, -57.635922222711116 -79.5, -96.2578125 -79.5 M96.2578125 -79.5 C39.535691471260094 -79.5, -17.186429557479812 -79.5, -96.2578125 -79.5 M-96.2578125 -79.5 C-96.2578125 -93.51674755385606, -96.2578125 -107.53349510771211, -96.2578125 -119.25 M-96.2578125 -79.5 C-96.2578125 -93.83454179134452, -96.2578125 -108.16908358268904, -96.2578125 -119.25" stroke="#999" stroke-width="1.3" fill="none" stroke-dasharray="0 0"/></g><g style="" class="row-rect-even"><path d="M-96.2578125 -79.5 L96.2578125 -79.5 L96.2578125 -39.75 L-96.2578125 -39.75" stroke="none" stroke-width="0" fill="#f4f4f4"/><path d="M-96.2578125 -79.5 C-31.046449478035726 -79.5, 34.16491354392855 -79.5, 96.2578125 -79.5 M-96.2578125 -79.5 C-46.243218693012395 -79.5, 3.7713751139752105 -79.5, 96.2578125 -79.5 M96.2578125 -79.5 C96.2578125 -71.47985908027046, 96.2578125 -63.459718160540916, 96.2578125 -39.75 M96.2578125 -79.5 C96.2578125 -66.45841463647075, 96.2578125 -53.41682927294151, 96.2578125 -39.75 M96.2578125 -39.75 C29.69593606410598 -39.75, -36.86594037178804 -39.75, -96.2578125 -39.75 M96.2578125 -39.75 C52.569021775098186 -39.75, 8.880231050196372 -39.75, -96.2578125 -39.75 M-96.2578125 -39.75 C-96.2578125 -49.70686267798801, -96.2578125 -59.66372535597603, -96.2578125 -79.5 M-96.2578125 -39.75 C-96.2578125 -52.075959386622515, -96.2578125 -64.40191877324503, -96.2578125 -79.5" stroke="#999" stroke-width="1.3" fill="none" stroke-dasharray="0 0"/></g><g style="" class="row-rect-odd"><path d="M-96.2578125 -39.75 L96.2578125 -39.75 L96.2578125 0 L-96.2578125 0" stroke="none" stroke-width="0" fill="hsl(0, 0%, 100%)"/><path d="M-96.2578125 -39.75 C-28.46242244159079 -39.75, 39.33296761681842 -39.75, 96.2578125 -39.75 M-96.2578125 -39.75 C-22.880566491666343 -39.75, 50.496679516667314 -39.75, 96.2578125 -39.75 M96.2578125 -39.75 C96.2578125 -30.68950054463842, 96.2578125 -21.629001089276837, 96.2578125 0 M96.2578125 -39.75 C96.2578125 -25.071110587312898, 96.2578125 -10.392221174625796, 96.2578125 0 M96.2578125 0 C34.59570448966461 0, -27.066403520670775 0, -96.2578125 0 M96.2578125 0 C57.72728529535357 0, 19.196758090707135 0, -96.2578125 0 M-96.2578125 0 C-96.2578125 -14.28124136821696, -96.2578125 -28.56248273643392, -96.2578125 -39.75 M-96.2578125 0 C-96.2578125 -15.179538971473807, -96.2578125 -30.359077942947614, -96.2578125 -39.75" stroke="#999" stroke-width="1.3" fill="none" stroke-dasharray="0 0"/></g><g style="" class="row-rect-even"><path d="M-96.2578125 0 L96.2578125 0 L96.2578125 39.75 L-96.2578125 39.75" stroke="none" stroke-width="0" fill="#f4f4f4"/><path d="M-96.2578125 0 C-54.2248014149857 0, -12.191790329971397 0, 96.2578125 0 M-96.2578125 0 C-34.16176568509797 0, 27.934281129804063 0, 96.2578125 0 M96.2578125 0 C96.2578125 13.436096347834129, 96.2578125 26.872192695668257, 96.2578125 39.75 M96.2578125 0 C96.2578125 10.754627639470483, 96.2578125 21.509255278940966, 96.2578125 39.75 M96.2578125 39.75 C33.00334353634419 39.75, -30.25112542731162 39.75, -96.2578125 39.75 M96.2578125 39.75 C57.46616821773251 39.75, 18.674523935465018 39.75, -96.2578125 39.75 M-96.2578125 39.75 C-96.2578125 29.11274888782351, -96.2578125 18.47549777564702, -96.2578125 0 M-96.2578125 39.75 C-96.2578125 23.87521746589882, -96.2578125 8.000434931797642, -96.2578125 0" stroke="#999" stroke-width="1.3" fill="none" stroke-dasharray="0 0"/></g><g style="" class="row-rect-odd"><path d="M-96.2578125 39.75 L96.2578125 39.75 L96.2578125 79.5 L-96.2578125 79.5" stroke="none" stroke-width="0" fill="hsl(0, 0%, 100%)"/><path d="M-96.2578125 39.75 C-43.5533610063248 39.75, 9.151090487350402 39.75, 96.2578125 39.75 M-96.2578125 39.75 C-22.53510197559831 39.75, 51.18760854880338 39.75, 96.2578125 39.75 M96.2578125 39.75 C96.2578125 50.593462733532824, 96.2578125 61.43692546706565, 96.2578125 79.5 M96.2578125 39.75 C96.2578125 54.083088238940114, 96.2578125 68.41617647788023, 96.2578125 79.5 M96.2578125 79.5 C43.54439934967161 79.5, -9.169013800656785 79.5, -96.2578125 79.5 M96.2578125 79.5 C22.059799333199436 79.5, -52.13821383360113 79.5, -96.2578125 79.5 M-96.2578125 79.5 C-96.2578125 64.83120556639064, -96.2578125 50.16241113278127, -96.2578125 39.75 M-96.2578125 79.5 C-96.2578125 71.26122299547269, -96.2578125 63.02244599094537, -96.2578125 39.75" stroke="#999" stroke-width="1.3" fill="none" stroke-dasharray="0 0"/></g><g style="" class="row-rect-even"><path d="M-96.2578125 79.5 L96.2578125 79.5 L96.2578125 119.25 L-96.2578125 119.25" stroke="none" stroke-width="0" fill="#f4f4f4"/><path d="M-96.2578125 79.5 C-29.9745545007561 79.5, 36.3087034984878 79.5, 96.2578125 79.5 M-96.2578125 79.5 C-46.52224549667828 79.5, 3.213321506643439 79.5, 96.2578125 79.5 M96.2578125 79.5 C96.2578125 93.30551761999175, 96.2578125 107.1110352399835, 96.2578125 119.25 M96.2578125 79.5 C96.2578125 88.78043648636245, 96.2578125 98.06087297272488, 96.2578125 119.25 M96.2578125 119.25 C27.713784869510334 119.25, -40.83024276097933 119.25, -96.2578125 119.25 M96.2578125 119.25 C42.96341012361837 119.25, -10.330992252763266 119.25, -96.2578125 119.25 M-96.2578125 119.25 C-96.2578125 111.09321497493774, -96.2578125 102.93642994987547, -96.2578125 79.5 M-96.2578125 119.25 C-96.2578125 103.84009287844938, -96.2578125 88.43018575689877, -96.2578125 79.5" stroke="#999" stroke-width="1.3" fill="none" stroke-dasharray="0 0"/></g><g style="" class="row-rect-odd"><path d="M-96.2578125 119.25 L96.2578125 119.25 L96.2578125 159 L-96.2578125 159" stroke="none" stroke-width="0" fill="hsl(0, 0%, 100%)"/><path d="M-96.2578125 119.25 C-25.810066338224004 119.25, 44.63767982355199 119.25, 96.2578125 119.25 M-96.2578125 119.25 C-31.249693977937696 119.25, 33.75842454412461 119.25, 96.2578125 119.25 M96.2578125 119.25 C96.2578125 131.97956684973084, 96.2578125 144.70913369946172, 96.2578125 159 M96.2578125 119.25 C96.2578125 133.92139080994963, 96.2578125 148.59278161989926, 96.2578125 159 M96.2578125 159 C53.83610799721393 159, 11.414403494427859 159, -96.2578125 159 M96.2578125 159 C26.680546806077515 159, -42.89671888784497 159, -96.2578125 159 M-96.2578125 159 C-96.2578125 144.53202003514636, -96.2578125 130.06404007029275, -96.2578125 119.25 M-96.2578125 159 C-96.2578125 149.23528977340237, -96.2578125 139.47057954680474, -96.2578125 119.25" stroke="#999" stroke-width="1.3" fill="none" stroke-dasharray="0 0"/></g><g class="label name" transform="translate(-34.6328125, -149.625)" style=""><foreignObject width="69.265625" height="21"><div xmlns="http://www.w3.org/1999/xhtml" style="display: table-cell; white-space: nowrap; line-height: 1.5; max-width: 177px; text-align: start;"><span class="nodeLabel"><p>Notification</p></span></div></foreignObject></g><g class="label attribute-type" transform="translate(-83.7578125, -109.875)" style=""><foreignObject width="34.234375" height="21"><div xmlns="http://www.w3.org/1999/xhtml" style="display: table-cell; white-space: nowrap; line-height: 1.5; max-width: 136px; text-align: start;"><span class="nodeLabel"><p>string</p></span></div></foreignObject></g><g class="label attribute-name" transform="translate(-24.5234375, -109.875)" style=""><foreignObject width="10.90625" height="21"><div xmlns="http://www.w3.org/1999/xhtml" style="display: table-cell; white-space: nowrap; line-height: 1.5; max-width: 112px; text-align: start;"><span class="nodeLabel"><p>id</p></span></div></foreignObject></g><g class="label attribute-keys" transform="translate(65.0703125, -109.875)" style=""><foreignObject width="18.6875" height="21"><div xmlns="http://www.w3.org/1999/xhtml" style="display: table-cell; white-space: nowrap; line-height: 1.5; max-width: 121px; text-align: start;"><span class="nodeLabel"><p>PK</p></span></div></foreignObject></g><g class="label attribute-comment" transform="translate(108.7578125, -109.875)" style=""><foreignObject width="0" height="0"><div xmlns="http://www.w3.org/1999/xhtml" style="display: table-cell; white-space: nowrap; line-height: 1.5; max-width: 100px; text-align: start;"><span class="nodeLabel"></span></div></foreignObject></g><g class="label attribute-type" transform="translate(-83.7578125, -70.125)" style=""><foreignObject width="34.234375" height="21"><div xmlns="http://www.w3.org/1999/xhtml" style="display: table-cell; white-space: nowrap; line-height: 1.5; max-width: 136px; text-align: start;"><span class="nodeLabel"><p>string</p></span></div></foreignObject></g><g class="label attribute-name" transform="translate(-24.5234375, -70.125)" style=""><foreignObject width="64.59375" height="21"><div xmlns="http://www.w3.org/1999/xhtml" style="display: table-cell; white-space: nowrap; line-height: 1.5; max-width: 169px; text-align: start;"><span class="nodeLabel"><p>recipientId</p></span></div></foreignObject></g><g class="label attribute-keys" transform="translate(65.0703125, -70.125)" style=""><foreignObject width="17.890625" height="21"><div xmlns="http://www.w3.org/1999/xhtml" style="display: table-cell; white-space: nowrap; line-height: 1.5; max-width: 121px; text-align: start;"><span class="nodeLabel"><p>FK</p></span></div></foreignObject></g><g class="label attribute-comment" transform="translate(108.7578125, -70.125)" style=""><foreignObject width="0" height="0"><div xmlns="http://www.w3.org/1999/xhtml" style="display: table-cell; white-space: nowrap; line-height: 1.5; max-width: 100px; text-align: start;"><span class="nodeLabel"></span></div></foreignObject></g><g class="label attribute-type" transform="translate(-83.7578125, -30.375)" style=""><foreignObject width="34.234375" height="21"><div xmlns="http://www.w3.org/1999/xhtml" style="display: table-cell; white-space: nowrap; line-height: 1.5; max-width: 136px; text-align: start;"><span class="nodeLabel"><p>string</p></span></div></foreignObject></g><g class="label attribute-name" transform="translate(-24.5234375, -30.375)" style=""><foreignObject width="26.46875" height="21"><div xmlns="http://www.w3.org/1999/xhtml" style="display: table-cell; white-space: nowrap; line-height: 1.5; max-width: 128px; text-align: start;"><span class="nodeLabel"><p>type</p></span></div></foreignObject></g><g class="label attribute-keys" transform="translate(65.0703125, -30.375)" style=""><foreignObject width="0" height="0"><div xmlns="http://www.w3.org/1999/xhtml" style="display: table-cell; white-space: nowrap; line-height: 1.5; max-width: 100px; text-align: start;"><span class="nodeLabel"></span></div></foreignObject></g><g class="label attribute-comment" transform="translate(108.7578125, -30.375)" style=""><foreignObject width="0" height="0"><div xmlns="http://www.w3.org/1999/xhtml" style="display: table-cell; white-space: nowrap; line-height: 1.5; max-width: 100px; text-align: start;"><span class="nodeLabel"></span></div></foreignObject></g><g class="label attribute-type" transform="translate(-83.7578125, 9.375)" style=""><foreignObject width="34.234375" height="21"><div xmlns="http://www.w3.org/1999/xhtml" style="display: table-cell; white-space: nowrap; line-height: 1.5; max-width: 136px; text-align: start;"><span class="nodeLabel"><p>string</p></span></div></foreignObject></g><g class="label attribute-name" transform="translate(-24.5234375, 9.375)" style=""><foreignObject width="21.796875" height="21"><div xmlns="http://www.w3.org/1999/xhtml" style="display: table-cell; white-space: nowrap; line-height: 1.5; max-width: 125px; text-align: start;"><span class="nodeLabel"><p>title</p></span></div></foreignObject></g><g class="label attribute-keys" transform="translate(65.0703125, 9.375)" style=""><foreignObject width="0" height="0"><div xmlns="http://www.w3.org/1999/xhtml" style="display: table-cell; white-space: nowrap; line-height: 1.5; max-width: 100px; text-align: start;"><span class="nodeLabel"></span></div></foreignObject></g><g class="label attribute-comment" transform="translate(108.7578125, 9.375)" style=""><foreignObject width="0" height="0"><div xmlns="http://www.w3.org/1999/xhtml" style="display: table-cell; white-space: nowrap; line-height: 1.5; max-width: 100px; text-align: start;"><span class="nodeLabel"></span></div></foreignObject></g><g class="label attribute-type" transform="translate(-83.7578125, 49.125)" style=""><foreignObject width="34.234375" height="21"><div xmlns="http://www.w3.org/1999/xhtml" style="display: table-cell; white-space: nowrap; line-height: 1.5; max-width: 136px; text-align: start;"><span class="nodeLabel"><p>string</p></span></div></foreignObject></g><g class="label attribute-name" transform="translate(-24.5234375, 49.125)" style=""><foreignObject width="56.8125" height="21"><div xmlns="http://www.w3.org/1999/xhtml" style="display: table-cell; white-space: nowrap; line-height: 1.5; max-width: 154px; text-align: start;"><span class="nodeLabel"><p>message</p></span></div></foreignObject></g><g class="label attribute-keys" transform="translate(65.0703125, 49.125)" style=""><foreignObject width="0" height="0"><div xmlns="http://www.w3.org/1999/xhtml" style="display: table-cell; white-space: nowrap; line-height: 1.5; max-width: 100px; text-align: start;"><span class="nodeLabel"></span></div></foreignObject></g><g class="label attribute-comment" transform="translate(108.7578125, 49.125)" style=""><foreignObject width="0" height="0"><div xmlns="http://www.w3.org/1999/xhtml" style="display: table-cell; white-space: nowrap; line-height: 1.5; max-width: 100px; text-align: start;"><span class="nodeLabel"></span></div></foreignObject></g><g class="label attribute-type" transform="translate(-83.7578125, 88.875)" style=""><foreignObject width="34.234375" height="21"><div xmlns="http://www.w3.org/1999/xhtml" style="display: table-cell; white-space: nowrap; line-height: 1.5; max-width: 136px; text-align: start;"><span class="nodeLabel"><p>string</p></span></div></foreignObject></g><g class="label attribute-name" transform="translate(-24.5234375, 88.875)" style=""><foreignObject width="42.015625" height="21"><div xmlns="http://www.w3.org/1999/xhtml" style="display: table-cell; white-space: nowrap; line-height: 1.5; max-width: 148px; text-align: start;"><span class="nodeLabel"><p>priority</p></span></div></foreignObject></g><g class="label attribute-keys" transform="translate(65.0703125, 88.875)" style=""><foreignObject width="0" height="0"><div xmlns="http://www.w3.org/1999/xhtml" style="display: table-cell; white-space: nowrap; line-height: 1.5; max-width: 100px; text-align: start;"><span class="nodeLabel"></span></div></foreignObject></g><g class="label attribute-comment" transform="translate(108.7578125, 88.875)" style=""><foreignObject width="0" height="0"><div xmlns="http://www.w3.org/1999/xhtml" style="display: table-cell; white-space: nowrap; line-height: 1.5; max-width: 100px; text-align: start;"><span class="nodeLabel"></span></div></foreignObject></g><g class="label attribute-type" transform="translate(-83.7578125, 128.625)" style=""><foreignObject width="26.46875" height="21"><div xmlns="http://www.w3.org/1999/xhtml" style="display: table-cell; white-space: nowrap; line-height: 1.5; max-width: 129px; text-align: start;"><span class="nodeLabel"><p>bool</p></span></div></foreignObject></g><g class="label attribute-name" transform="translate(-24.5234375, 128.625)" style=""><foreignObject width="43.59375" height="21"><div xmlns="http://www.w3.org/1999/xhtml" style="display: table-cell; white-space: nowrap; line-height: 1.5; max-width: 144px; text-align: start;"><span class="nodeLabel"><p>isRead</p></span></div></foreignObject></g><g class="label attribute-keys" transform="translate(65.0703125, 128.625)" style=""><foreignObject width="0" height="0"><div xmlns="http://www.w3.org/1999/xhtml" style="display: table-cell; white-space: nowrap; line-height: 1.5; max-width: 100px; text-align: start;"><span class="nodeLabel"></span></div></foreignObject></g><g class="label attribute-comment" transform="translate(108.7578125, 128.625)" style=""><foreignObject width="0" height="0"><div xmlns="http://www.w3.org/1999/xhtml" style="display: table-cell; white-space: nowrap; line-height: 1.5; max-width: 100px; text-align: start;"><span class="nodeLabel"></span></div></foreignObject></g><g class="divider"><path d="M-96.2578125 -119.25005 L-96.2578125 -119.24995 L96.2578125 -119.24995 L96.2578125 -119.25005" stroke="none" stroke-width="0" fill="#eee" fill-rule="evenodd"/><path d="M-96.2578125 -119.25005 C-96.2578125 -119.25001908810405, -96.2578125 -119.2499881762081, -96.2578125 -119.24995 M-96.2578125 -119.25005 C-96.2578125 -119.25001482362772, -96.2578125 -119.24997964725544, -96.2578125 -119.24995 M-96.2578125 -119.24995 C-21.007004345235842 -119.24995, 54.243803809528316 -119.24995, 96.2578125 -119.24995 M-96.2578125 -119.24995 C-33.71840091184177 -119.24995, 28.82101067631646 -119.24995, 96.2578125 -119.24995 M96.2578125 -119.24995 C96.2578125 -119.24997822522968, 96.2578125 -119.25000645045937, 96.2578125 -119.25005 M96.2578125 -119.24995 C96.2578125 -119.24998391165279, 96.2578125 -119.2500178233056, 96.2578125 -119.25005 M96.2578125 -119.25005 C47.0073393939278 -119.25005, -2.243133712144399 -119.25005, -96.2578125 -119.25005 M96.2578125 -119.25005 C34.905083002817754 -119.25005, -26.44764649436449 -119.25005, -96.2578125 -119.25005" stroke="#999" stroke-width="1.3" fill="none" stroke-dasharray="0 0"/></g><g class="divider"><path d="M-37.0234875 -119.25 L-37.0233875 -119.25 L-37.0233875 159 L-37.0234875 159" stroke="none" stroke-width="0" fill="#eee" fill-rule="evenodd"/><path d="M-37.0234875 -119.25 C-37.02345931015415 -119.25, -37.0234311203083 -119.25, -37.0233875 -119.25 M-37.0234875 -119.25 C-37.02345690438906 -119.25, -37.02342630877812 -119.25, -37.0233875 -119.25 M-37.0233875 -119.25 C-37.0233875 -61.90075072523013, -37.0233875 -4.551501450460265, -37.0233875 159 M-37.0233875 -119.25 C-37.0233875 -31.426783626109255, -37.0233875 56.39643274778149, -37.0233875 159 M-37.0233875 159 C-37.02341764829722 159, -37.02344779659443 159, -37.0234875 159 M-37.0233875 159 C-37.02342656983365 159, -37.02346563966731 159, -37.0234875 159 M-37.0234875 159 C-37.0234875 52.91405703079066, -37.0234875 -53.17188593841868, -37.0234875 -119.25 M-37.0234875 159 C-37.0234875 58.848018516279026, -37.0234875 -41.30396296744195, -37.0234875 -119.25" stroke="#999" stroke-width="1.3" fill="none" stroke-dasharray="0 0"/></g><g class="divider"><path d="M52.5702625 -119.25 L52.5703625 -119.25 L52.5703625 159 L52.5702625 159" stroke="none" stroke-width="0" fill="#eee" fill-rule="evenodd"/><path d="M52.5702625 -119.25 C52.570290117925 -119.25, 52.57031773585 -119.25, 52.5703625 -119.25 M52.5702625 -119.25 C52.570290322595426 -119.25, 52.57031814519086 -119.25, 52.5703625 -119.25 M52.5703625 -119.25 C52.5703625 -40.70719546168404, 52.5703625 37.835609076631926, 52.5703625 159 M52.5703625 -119.25 C52.5703625 -25.29421035338737, 52.5703625 68.66157929322526, 52.5703625 159 M52.5703625 159 C52.57034221126761 159, 52.57032192253521 159, 52.5702625 159 M52.5703625 159 C52.570342312227474 159, 52.570322124454954 159, 52.5702625 159 M52.5702625 159 C52.5702625 96.98795972965164, 52.5702625 34.975919459303256, 52.5702625 -119.25 M52.5702625 159 C52.5702625 101.46056832059595, 52.5702625 43.92113664119191, 52.5702625 -119.25" stroke="#999" stroke-width="1.3" fill="none" stroke-dasharray="0 0"/></g><g class="divider"><path d="M-96.2578125 -119.25005 L-96.2578125 -119.24995 L96.2578125 -119.24995 L96.2578125 -119.25005" stroke="none" stroke-width="0" fill="#eee" fill-rule="evenodd"/><path d="M-96.2578125 -119.25005 C-96.2578125 -119.25001708549723, -96.2578125 -119.24998417099447, -96.2578125 -119.24995 M-96.2578125 -119.25005 C-96.2578125 -119.25002544710921, -96.2578125 -119.2500008942184, -96.2578125 -119.24995 M-96.2578125 -119.24995 C-22.564531765346274 -119.24995, 51.12874896930745 -119.24995, 96.2578125 -119.24995 M-96.2578125 -119.24995 C-50.47346053573662 -119.24995, -4.689108571473241 -119.24995, 96.2578125 -119.24995 M96.2578125 -119.24995 C96.2578125 -119.24998534259666, 96.2578125 -119.25002068519333, 96.2578125 -119.25005 M96.2578125 -119.24995 C96.2578125 -119.24998580172694, 96.2578125 -119.25002160345387, 96.2578125 -119.25005 M96.2578125 -119.25005 C46.166859375676715 -119.25005, -3.9240937486465697 -119.25005, -96.2578125 -119.25005 M96.2578125 -119.25005 C36.383891020207734 -119.25005, -23.49003045958453 -119.25005, -96.2578125 -119.25005" stroke="#999" stroke-width="1.3" fill="none" stroke-dasharray="0 0"/></g></g><g class="node default" id="my-svg-entity-Invitation-2" data-look="classic" transform="translate(455.4609375, 368.875)"><g class="outer-path" style=""><path d="M-114.9453125 -178.875 L114.9453125 -178.875 L114.9453125 178.875 L-114.9453125 178.875" stroke="none" stroke-width="0" fill="#eee"/><path d="M-114.9453125 -178.875 C-23.315485066809572 -178.875, 68.31434236638086 -178.875, 114.9453125 -178.875 M-114.9453125 -178.875 C-52.7843118427585 -178.875, 9.376688814483003 -178.875, 114.9453125 -178.875 M114.9453125 -178.875 C114.9453125 -105.53215349453285, 114.9453125 -32.1893069890657, 114.9453125 178.875 M114.9453125 -178.875 C114.9453125 -68.26063244626805, 114.9453125 42.353735107463905, 114.9453125 178.875 M114.9453125 178.875 C68.96456312966023 178.875, 22.98381375932047 178.875, -114.9453125 178.875 M114.9453125 178.875 C42.43478006321013 178.875, -30.075752373579746 178.875, -114.9453125 178.875 M-114.9453125 178.875 C-114.9453125 66.76529769745379, -114.9453125 -45.34440460509242, -114.9453125 -178.875 M-114.9453125 178.875 C-114.9453125 42.10658274721925, -114.9453125 -94.6618345055615, -114.9453125 -178.875" stroke="#999" stroke-width="1.3" fill="none" stroke-dasharray="0 0"/></g><g style="" class="row-rect-odd"><path d="M-114.9453125 -139.125 L114.9453125 -139.125 L114.9453125 -99.375 L-114.9453125 -99.375" stroke="none" stroke-width="0" fill="hsl(0, 0%, 100%)"/><path d="M-114.9453125 -139.125 C-27.233384344466117 -139.125, 60.478543811067766 -139.125, 114.9453125 -139.125 M-114.9453125 -139.125 C-63.35311788658822 -139.125, -11.760923273176445 -139.125, 114.9453125 -139.125 M114.9453125 -139.125 C114.9453125 -123.51011602209744, 114.9453125 -107.89523204419487, 114.9453125 -99.375 M114.9453125 -139.125 C114.9453125 -130.84656435767624, 114.9453125 -122.56812871535246, 114.9453125 -99.375 M114.9453125 -99.375 C57.911776687406544 -99.375, 0.8782408748130877 -99.375, -114.9453125 -99.375 M114.9453125 -99.375 C41.25728233072461 -99.375, -32.430747838550786 -99.375, -114.9453125 -99.375 M-114.9453125 -99.375 C-114.9453125 -107.98362911282128, -114.9453125 -116.59225822564255, -114.9453125 -139.125 M-114.9453125 -99.375 C-114.9453125 -112.64878171962219, -114.9453125 -125.92256343924437, -114.9453125 -139.125" stroke="#999" stroke-width="1.3" fill="none" stroke-dasharray="0 0"/></g><g style="" class="row-rect-even"><path d="M-114.9453125 -99.375 L114.9453125 -99.375 L114.9453125 -59.625 L-114.9453125 -59.625" stroke="none" stroke-width="0" fill="#f4f4f4"/><path d="M-114.9453125 -99.375 C-41.53773743997179 -99.375, 31.869837620056416 -99.375, 114.9453125 -99.375 M-114.9453125 -99.375 C-32.55530866072439 -99.375, 49.834695178551215 -99.375, 114.9453125 -99.375 M114.9453125 -99.375 C114.9453125 -83.60202264292106, 114.9453125 -67.82904528584211, 114.9453125 -59.625 M114.9453125 -99.375 C114.9453125 -87.38241699053142, 114.9453125 -75.38983398106285, 114.9453125 -59.625 M114.9453125 -59.625 C37.1751851162053 -59.625, -40.5949422675894 -59.625, -114.9453125 -59.625 M114.9453125 -59.625 C54.363081876868556 -59.625, -6.2191487462628885 -59.625, -114.9453125 -59.625 M-114.9453125 -59.625 C-114.9453125 -70.37754998661693, -114.9453125 -81.13009997323385, -114.9453125 -99.375 M-114.9453125 -59.625 C-114.9453125 -73.13636203726689, -114.9453125 -86.64772407453378, -114.9453125 -99.375" stroke="#999" stroke-width="1.3" fill="none" stroke-dasharray="0 0"/></g><g style="" class="row-rect-odd"><path d="M-114.9453125 -59.625 L114.9453125 -59.625 L114.9453125 -19.875 L-114.9453125 -19.875" stroke="none" stroke-width="0" fill="hsl(0, 0%, 100%)"/><path d="M-114.9453125 -59.625 C-34.272413557555396 -59.625, 46.40048538488921 -59.625, 114.9453125 -59.625 M-114.9453125 -59.625 C-37.882551918653306 -59.625, 39.18020866269339 -59.625, 114.9453125 -59.625 M114.9453125 -59.625 C114.9453125 -48.949029614905214, 114.9453125 -38.27305922981043, 114.9453125 -19.875 M114.9453125 -59.625 C114.9453125 -44.65252932549821, 114.9453125 -29.680058650996415, 114.9453125 -19.875 M114.9453125 -19.875 C68.64468725463158 -19.875, 22.34406200926317 -19.875, -114.9453125 -19.875 M114.9453125 -19.875 C55.498824104750085 -19.875, -3.94766429049983 -19.875, -114.9453125 -19.875 M-114.9453125 -19.875 C-114.9453125 -28.379559255396906, -114.9453125 -36.88411851079381, -114.9453125 -59.625 M-114.9453125 -19.875 C-114.9453125 -32.717877232831675, -114.9453125 -45.56075446566335, -114.9453125 -59.625" stroke="#999" stroke-width="1.3" fill="none" stroke-dasharray="0 0"/></g><g style="" class="row-rect-even"><path d="M-114.9453125 -19.875 L114.9453125 -19.875 L114.9453125 19.875 L-114.9453125 19.875" stroke="none" stroke-width="0" fill="#f4f4f4"/><path d="M-114.9453125 -19.875 C-24.645886350484403 -19.875, 65.6535397990312 -19.875, 114.9453125 -19.875 M-114.9453125 -19.875 C-27.720099551213067 -19.875, 59.505113397573865 -19.875, 114.9453125 -19.875 M114.9453125 -19.875 C114.9453125 -9.943885820375895, 114.9453125 -0.012771640751790159, 114.9453125 19.875 M114.9453125 -19.875 C114.9453125 -5.561961221841409, 114.9453125 8.751077556317181, 114.9453125 19.875 M114.9453125 19.875 C33.26555316517195 19.875, -48.4142061696561 19.875, -114.9453125 19.875 M114.9453125 19.875 C64.27673972576616 19.875, 13.60816695153234 19.875, -114.9453125 19.875 M-114.9453125 19.875 C-114.9453125 3.990445348000952, -114.9453125 -11.894109303998096, -114.9453125 -19.875 M-114.9453125 19.875 C-114.9453125 7.306403786754277, -114.9453125 -5.2621924264914455, -114.9453125 -19.875" stroke="#999" stroke-width="1.3" fill="none" stroke-dasharray="0 0"/></g><g style="" class="row-rect-odd"><path d="M-114.9453125 19.875 L114.9453125 19.875 L114.9453125 59.625 L-114.9453125 59.625" stroke="none" stroke-width="0" fill="hsl(0, 0%, 100%)"/><path d="M-114.9453125 19.875 C-63.27436664831449 19.875, -11.603420796628981 19.875, 114.9453125 19.875 M-114.9453125 19.875 C-63.86696894978474 19.875, -12.788625399569483 19.875, 114.9453125 19.875 M114.9453125 19.875 C114.9453125 30.050433815006365, 114.9453125 40.22586763001273, 114.9453125 59.625 M114.9453125 19.875 C114.9453125 29.17767335043058, 114.9453125 38.48034670086116, 114.9453125 59.625 M114.9453125 59.625 C45.82981047921399 59.625, -23.28569154157202 59.625, -114.9453125 59.625 M114.9453125 59.625 C68.90195608964342 59.625, 22.858599679286854 59.625, -114.9453125 59.625 M-114.9453125 59.625 C-114.9453125 49.0805645806704, -114.9453125 38.536129161340796, -114.9453125 19.875 M-114.9453125 59.625 C-114.9453125 51.40027609230654, -114.9453125 43.17555218461308, -114.9453125 19.875" stroke="#999" stroke-width="1.3" fill="none" stroke-dasharray="0 0"/></g><g style="" class="row-rect-even"><path d="M-114.9453125 59.625 L114.9453125 59.625 L114.9453125 99.375 L-114.9453125 99.375" stroke="none" stroke-width="0" fill="#f4f4f4"/><path d="M-114.9453125 59.625 C-31.94970995673198 59.625, 51.04589258653604 59.625, 114.9453125 59.625 M-114.9453125 59.625 C-50.78145827733414 59.625, 13.382395945331723 59.625, 114.9453125 59.625 M114.9453125 59.625 C114.9453125 70.21550297189455, 114.9453125 80.8060059437891, 114.9453125 99.375 M114.9453125 59.625 C114.9453125 75.45657973758551, 114.9453125 91.28815947517101, 114.9453125 99.375 M114.9453125 99.375 C39.18606183417256 99.375, -36.573188831654875 99.375, -114.9453125 99.375 M114.9453125 99.375 C59.55155022875351 99.375, 4.157787957507026 99.375, -114.9453125 99.375 M-114.9453125 99.375 C-114.9453125 85.25072117950272, -114.9453125 71.12644235900544, -114.9453125 59.625 M-114.9453125 99.375 C-114.9453125 87.22833486869627, -114.9453125 75.08166973739255, -114.9453125 59.625" stroke="#999" stroke-width="1.3" fill="none" stroke-dasharray="0 0"/></g><g style="" class="row-rect-odd"><path d="M-114.9453125 99.375 L114.9453125 99.375 L114.9453125 139.125 L-114.9453125 139.125" stroke="none" stroke-width="0" fill="hsl(0, 0%, 100%)"/><path d="M-114.9453125 99.375 C-64.01463107703174 99.375, -13.083949654063488 99.375, 114.9453125 99.375 M-114.9453125 99.375 C-32.91644091019484 99.375, 49.11243067961033 99.375, 114.9453125 99.375 M114.9453125 99.375 C114.9453125 108.344162003586, 114.9453125 117.31332400717201, 114.9453125 139.125 M114.9453125 99.375 C114.9453125 112.0641791291979, 114.9453125 124.75335825839579, 114.9453125 139.125 M114.9453125 139.125 C56.3434168779206 139.125, -2.2584787441587935 139.125, -114.9453125 139.125 M114.9453125 139.125 C45.7328716819561 139.125, -23.479569136087804 139.125, -114.9453125 139.125 M-114.9453125 139.125 C-114.9453125 126.39653139613858, -114.9453125 113.66806279227717, -114.9453125 99.375 M-114.9453125 139.125 C-114.9453125 127.61539555129932, -114.9453125 116.10579110259863, -114.9453125 99.375" stroke="#999" stroke-width="1.3" fill="none" stroke-dasharray="0 0"/></g><g style="" class="row-rect-even"><path d="M-114.9453125 139.125 L114.9453125 139.125 L114.9453125 178.875 L-114.9453125 178.875" stroke="none" stroke-width="0" fill="#f4f4f4"/><path d="M-114.9453125 139.125 C-35.39362790550578 139.125, 44.15805668898844 139.125, 114.9453125 139.125 M-114.9453125 139.125 C-49.54444512184489 139.125, 15.856422256310225 139.125, 114.9453125 139.125 M114.9453125 139.125 C114.9453125 147.69444607466775, 114.9453125 156.2638921493355, 114.9453125 178.875 M114.9453125 139.125 C114.9453125 153.71871132074781, 114.9453125 168.31242264149563, 114.9453125 178.875 M114.9453125 178.875 C49.279998918749286 178.875, -16.38531466250143 178.875, -114.9453125 178.875 M114.9453125 178.875 C27.054288409688667 178.875, -60.83673568062267 178.875, -114.9453125 178.875 M-114.9453125 178.875 C-114.9453125 169.36929202366306, -114.9453125 159.86358404732613, -114.9453125 139.125 M-114.9453125 178.875 C-114.9453125 168.300262911405, -114.9453125 157.72552582281, -114.9453125 139.125" stroke="#999" stroke-width="1.3" fill="none" stroke-dasharray="0 0"/></g><g class="label name" transform="translate(-28.0234375, -169.5)" style=""><foreignObject width="56.046875" height="21"><div xmlns="http://www.w3.org/1999/xhtml" style="display: table-cell; white-space: nowrap; line-height: 1.5; max-width: 162px; text-align: start;"><span class="nodeLabel"><p>Invitation</p></span></div></foreignObject></g><g class="label attribute-type" transform="translate(-102.4453125, -129.75)" style=""><foreignObject width="34.234375" height="21"><div xmlns="http://www.w3.org/1999/xhtml" style="display: table-cell; white-space: nowrap; line-height: 1.5; max-width: 136px; text-align: start;"><span class="nodeLabel"><p>string</p></span></div></foreignObject></g><g class="label attribute-name" transform="translate(-23.7421875, -129.75)" style=""><foreignObject width="10.90625" height="21"><div xmlns="http://www.w3.org/1999/xhtml" style="display: table-cell; white-space: nowrap; line-height: 1.5; max-width: 112px; text-align: start;"><span class="nodeLabel"><p>id</p></span></div></foreignObject></g><g class="label attribute-keys" transform="translate(83.7578125, -129.75)" style=""><foreignObject width="18.6875" height="21"><div xmlns="http://www.w3.org/1999/xhtml" style="display: table-cell; white-space: nowrap; line-height: 1.5; max-width: 121px; text-align: start;"><span class="nodeLabel"><p>PK</p></span></div></foreignObject></g><g class="label attribute-comment" transform="translate(127.4453125, -129.75)" style=""><foreignObject width="0" height="0"><div xmlns="http://www.w3.org/1999/xhtml" style="display: table-cell; white-space: nowrap; line-height: 1.5; max-width: 100px; text-align: start;"><span class="nodeLabel"></span></div></foreignObject></g><g class="label attribute-type" transform="translate(-102.4453125, -90)" style=""><foreignObject width="34.234375" height="21"><div xmlns="http://www.w3.org/1999/xhtml" style="display: table-cell; white-space: nowrap; line-height: 1.5; max-width: 136px; text-align: start;"><span class="nodeLabel"><p>string</p></span></div></foreignObject></g><g class="label attribute-name" transform="translate(-23.7421875, -90)" style=""><foreignObject width="33.46875" height="21"><div xmlns="http://www.w3.org/1999/xhtml" style="display: table-cell; white-space: nowrap; line-height: 1.5; max-width: 136px; text-align: start;"><span class="nodeLabel"><p>email</p></span></div></foreignObject></g><g class="label attribute-keys" transform="translate(83.7578125, -90)" style=""><foreignObject width="0" height="0"><div xmlns="http://www.w3.org/1999/xhtml" style="display: table-cell; white-space: nowrap; line-height: 1.5; max-width: 100px; text-align: start;"><span class="nodeLabel"></span></div></foreignObject></g><g class="label attribute-comment" transform="translate(127.4453125, -90)" style=""><foreignObject width="0" height="0"><div xmlns="http://www.w3.org/1999/xhtml" style="display: table-cell; white-space: nowrap; line-height: 1.5; max-width: 100px; text-align: start;"><span class="nodeLabel"></span></div></foreignObject></g><g class="label attribute-type" transform="translate(-102.4453125, -50.25)" style=""><foreignObject width="34.234375" height="21"><div xmlns="http://www.w3.org/1999/xhtml" style="display: table-cell; white-space: nowrap; line-height: 1.5; max-width: 136px; text-align: start;"><span class="nodeLabel"><p>string</p></span></div></foreignObject></g><g class="label attribute-name" transform="translate(-23.7421875, -50.25)" style=""><foreignObject width="23.359375" height="21"><div xmlns="http://www.w3.org/1999/xhtml" style="display: table-cell; white-space: nowrap; line-height: 1.5; max-width: 125px; text-align: start;"><span class="nodeLabel"><p>role</p></span></div></foreignObject></g><g class="label attribute-keys" transform="translate(83.7578125, -50.25)" style=""><foreignObject width="0" height="0"><div xmlns="http://www.w3.org/1999/xhtml" style="display: table-cell; white-space: nowrap; line-height: 1.5; max-width: 100px; text-align: start;"><span class="nodeLabel"></span></div></foreignObject></g><g class="label attribute-comment" transform="translate(127.4453125, -50.25)" style=""><foreignObject width="0" height="0"><div xmlns="http://www.w3.org/1999/xhtml" style="display: table-cell; white-space: nowrap; line-height: 1.5; max-width: 100px; text-align: start;"><span class="nodeLabel"></span></div></foreignObject></g><g class="label attribute-type" transform="translate(-102.4453125, -10.5)" style=""><foreignObject width="34.234375" height="21"><div xmlns="http://www.w3.org/1999/xhtml" style="display: table-cell; white-space: nowrap; line-height: 1.5; max-width: 136px; text-align: start;"><span class="nodeLabel"><p>string</p></span></div></foreignObject></g><g class="label attribute-name" transform="translate(-23.7421875, -10.5)" style=""><foreignObject width="34.25" height="21"><div xmlns="http://www.w3.org/1999/xhtml" style="display: table-cell; white-space: nowrap; line-height: 1.5; max-width: 136px; text-align: start;"><span class="nodeLabel"><p>token</p></span></div></foreignObject></g><g class="label attribute-keys" transform="translate(83.7578125, -10.5)" style=""><foreignObject width="0" height="0"><div xmlns="http://www.w3.org/1999/xhtml" style="display: table-cell; white-space: nowrap; line-height: 1.5; max-width: 100px; text-align: start;"><span class="nodeLabel"></span></div></foreignObject></g><g class="label attribute-comment" transform="translate(127.4453125, -10.5)" style=""><foreignObject width="0" height="0"><div xmlns="http://www.w3.org/1999/xhtml" style="display: table-cell; white-space: nowrap; line-height: 1.5; max-width: 100px; text-align: start;"><span class="nodeLabel"></span></div></foreignObject></g><g class="label attribute-type" transform="translate(-102.4453125, 29.25)" style=""><foreignObject width="53.703125" height="21"><div xmlns="http://www.w3.org/1999/xhtml" style="display: table-cell; white-space: nowrap; line-height: 1.5; max-width: 155px; text-align: start;"><span class="nodeLabel"><p>datetime</p></span></div></foreignObject></g><g class="label attribute-name" transform="translate(-23.7421875, 29.25)" style=""><foreignObject width="58.359375" height="21"><div xmlns="http://www.w3.org/1999/xhtml" style="display: table-cell; white-space: nowrap; line-height: 1.5; max-width: 163px; text-align: start;"><span class="nodeLabel"><p>expiresAt</p></span></div></foreignObject></g><g class="label attribute-keys" transform="translate(83.7578125, 29.25)" style=""><foreignObject width="0" height="0"><div xmlns="http://www.w3.org/1999/xhtml" style="display: table-cell; white-space: nowrap; line-height: 1.5; max-width: 100px; text-align: start;"><span class="nodeLabel"></span></div></foreignObject></g><g class="label attribute-comment" transform="translate(127.4453125, 29.25)" style=""><foreignObject width="0" height="0"><div xmlns="http://www.w3.org/1999/xhtml" style="display: table-cell; white-space: nowrap; line-height: 1.5; max-width: 100px; text-align: start;"><span class="nodeLabel"></span></div></foreignObject></g><g class="label attribute-type" transform="translate(-102.4453125, 69)" style=""><foreignObject width="34.234375" height="21"><div xmlns="http://www.w3.org/1999/xhtml" style="display: table-cell; white-space: nowrap; line-height: 1.5; max-width: 136px; text-align: start;"><span class="nodeLabel"><p>string</p></span></div></foreignObject></g><g class="label attribute-name" transform="translate(-23.7421875, 69)" style=""><foreignObject width="37.359375" height="21"><div xmlns="http://www.w3.org/1999/xhtml" style="display: table-cell; white-space: nowrap; line-height: 1.5; max-width: 136px; text-align: start;"><span class="nodeLabel"><p>status</p></span></div></foreignObject></g><g class="label attribute-keys" transform="translate(83.7578125, 69)" style=""><foreignObject width="0" height="0"><div xmlns="http://www.w3.org/1999/xhtml" style="display: table-cell; white-space: nowrap; line-height: 1.5; max-width: 100px; text-align: start;"><span class="nodeLabel"></span></div></foreignObject></g><g class="label attribute-comment" transform="translate(127.4453125, 69)" style=""><foreignObject width="0" height="0"><div xmlns="http://www.w3.org/1999/xhtml" style="display: table-cell; white-space: nowrap; line-height: 1.5; max-width: 100px; text-align: start;"><span class="nodeLabel"></span></div></foreignObject></g><g class="label attribute-type" transform="translate(-102.4453125, 108.75)" style=""><foreignObject width="34.234375" height="21"><div xmlns="http://www.w3.org/1999/xhtml" style="display: table-cell; white-space: nowrap; line-height: 1.5; max-width: 136px; text-align: start;"><span class="nodeLabel"><p>string</p></span></div></foreignObject></g><g class="label attribute-name" transform="translate(-23.7421875, 108.75)" style=""><foreignObject width="68.484375" height="21"><div xmlns="http://www.w3.org/1999/xhtml" style="display: table-cell; white-space: nowrap; line-height: 1.5; max-width: 176px; text-align: start;"><span class="nodeLabel"><p>invitedById</p></span></div></foreignObject></g><g class="label attribute-keys" transform="translate(83.7578125, 108.75)" style=""><foreignObject width="17.890625" height="21"><div xmlns="http://www.w3.org/1999/xhtml" style="display: table-cell; white-space: nowrap; line-height: 1.5; max-width: 121px; text-align: start;"><span class="nodeLabel"><p>FK</p></span></div></foreignObject></g><g class="label attribute-comment" transform="translate(127.4453125, 108.75)" style=""><foreignObject width="0" height="0"><div xmlns="http://www.w3.org/1999/xhtml" style="display: table-cell; white-space: nowrap; line-height: 1.5; max-width: 100px; text-align: start;"><span class="nodeLabel"></span></div></foreignObject></g><g class="label attribute-type" transform="translate(-102.4453125, 148.5)" style=""><foreignObject width="34.234375" height="21"><div xmlns="http://www.w3.org/1999/xhtml" style="display: table-cell; white-space: nowrap; line-height: 1.5; max-width: 136px; text-align: start;"><span class="nodeLabel"><p>string</p></span></div></foreignObject></g><g class="label attribute-name" transform="translate(-23.7421875, 148.5)" style=""><foreignObject width="82.5" height="21"><div xmlns="http://www.w3.org/1999/xhtml" style="display: table-cell; white-space: nowrap; line-height: 1.5; max-width: 185px; text-align: start;"><span class="nodeLabel"><p>departmentId</p></span></div></foreignObject></g><g class="label attribute-keys" transform="translate(83.7578125, 148.5)" style=""><foreignObject width="17.890625" height="21"><div xmlns="http://www.w3.org/1999/xhtml" style="display: table-cell; white-space: nowrap; line-height: 1.5; max-width: 121px; text-align: start;"><span class="nodeLabel"><p>FK</p></span></div></foreignObject></g><g class="label attribute-comment" transform="translate(127.4453125, 148.5)" style=""><foreignObject width="0" height="0"><div xmlns="http://www.w3.org/1999/xhtml" style="display: table-cell; white-space: nowrap; line-height: 1.5; max-width: 100px; text-align: start;"><span class="nodeLabel"></span></div></foreignObject></g><g class="divider"><path d="M-114.9453125 -139.12505 L-114.9453125 -139.12495 L114.9453125 -139.12495 L114.9453125 -139.12505" stroke="none" stroke-width="0" fill="#eee" fill-rule="evenodd"/><path d="M-114.9453125 -139.12505 C-114.9453125 -139.1250224609017, -114.9453125 -139.12499492180345, -114.9453125 -139.12495 M-114.9453125 -139.12505 C-114.9453125 -139.12502465252018, -114.9453125 -139.12499930504038, -114.9453125 -139.12495 M-114.9453125 -139.12495 C-27.68771911334879 -139.12495, 59.56987427330242 -139.12495, 114.9453125 -139.12495 M-114.9453125 -139.12495 C-39.91102018672062 -139.12495, 35.12327212655876 -139.12495, 114.9453125 -139.12495 M114.9453125 -139.12495 C114.9453125 -139.1249721880796, 114.9453125 -139.1249943761592, 114.9453125 -139.12505 M114.9453125 -139.12495 C114.9453125 -139.1249842724565, 114.9453125 -139.12501854491296, 114.9453125 -139.12505 M114.9453125 -139.12505 C27.579802638550987 -139.12505, -59.785707222898026 -139.12505, -114.9453125 -139.12505 M114.9453125 -139.12505 C35.61855901027023 -139.12505, -43.708194479459536 -139.12505, -114.9453125 -139.12505" stroke="#999" stroke-width="1.3" fill="none" stroke-dasharray="0 0"/></g><g class="divider"><path d="M-36.2422375 -139.125 L-36.2421375 -139.125 L-36.2421375 178.875 L-36.2422375 178.875" stroke="none" stroke-width="0" fill="#eee" fill-rule="evenodd"/><path d="M-36.2422375 -139.125 C-36.24220495680866 -139.125, -36.242172413617325 -139.125, -36.2421375 -139.125 M-36.2422375 -139.125 C-36.24221549249411 -139.125, -36.24219348498821 -139.125, -36.2421375 -139.125 M-36.2421375 -139.125 C-36.2421375 -63.26285179662325, -36.2421375 12.599296406753496, -36.2421375 178.875 M-36.2421375 -139.125 C-36.2421375 -42.76946238967595, -36.2421375 53.5860752206481, -36.2421375 178.875 M-36.2421375 178.875 C-36.24217069223956 178.875, -36.24220388447912 178.875, -36.2422375 178.875 M-36.2421375 178.875 C-36.242168156017264 178.875, -36.24219881203453 178.875, -36.2422375 178.875 M-36.2422375 178.875 C-36.2422375 81.37035219034395, -36.2422375 -16.1342956193121, -36.2422375 -139.125 M-36.2422375 178.875 C-36.2422375 98.95399553275247, -36.2422375 19.032991065504945, -36.2422375 -139.125" stroke="#999" stroke-width="1.3" fill="none" stroke-dasharray="0 0"/></g><g class="divider"><path d="M71.2577625 -139.125 L71.2578625 -139.125 L71.2578625 178.875 L71.2577625 178.875" stroke="none" stroke-width="0" fill="#eee" fill-rule="evenodd"/><path d="M71.2577625 -139.125 C71.25779927713621 -139.125, 71.25783605427243 -139.125, 71.2578625 -139.125 M71.2577625 -139.125 C71.25779743040887 -139.125, 71.25783236081776 -139.125, 71.2578625 -139.125 M71.2578625 -139.125 C71.2578625 -28.29779661272397, 71.2578625 82.52940677455206, 71.2578625 178.875 M71.2578625 -139.125 C71.2578625 -20.16900729094752, 71.2578625 98.78698541810496, 71.2578625 178.875 M71.2578625 178.875 C71.25783800180223 178.875, 71.25781350360445 178.875, 71.2577625 178.875 M71.2578625 178.875 C71.25783228343664 178.875, 71.25780206687328 178.875, 71.2577625 178.875 M71.2577625 178.875 C71.2577625 58.373695440016974, 71.2577625 -62.12760911996605, 71.2577625 -139.125 M71.2577625 178.875 C71.2577625 84.0595277608197, 71.2577625 -10.75594447836059, 71.2577625 -139.125" stroke="#999" stroke-width="1.3" fill="none" stroke-dasharray="0 0"/></g><g class="divider"><path d="M-114.9453125 -139.12505 L-114.9453125 -139.12495 L114.9453125 -139.12495 L114.9453125 -139.12505" stroke="none" stroke-width="0" fill="#eee" fill-rule="evenodd"/><path d="M-114.9453125 -139.12505 C-114.9453125 -139.12502364212597, -114.9453125 -139.12499728425195, -114.9453125 -139.12495 M-114.9453125 -139.12505 C-114.9453125 -139.12502655415554, -114.9453125 -139.12500310831106, -114.9453125 -139.12495 M-114.9453125 -139.12495 C-47.349794297344985 -139.12495, 20.24572390531003 -139.12495, 114.9453125 -139.12495 M-114.9453125 -139.12495 C-33.89403959723094 -139.12495, 47.157233305538114 -139.12495, 114.9453125 -139.12495 M114.9453125 -139.12495 C114.9453125 -139.12497223090386, 114.9453125 -139.12499446180774, 114.9453125 -139.12505 M114.9453125 -139.12495 C114.9453125 -139.12497170391603, 114.9453125 -139.12499340783202, 114.9453125 -139.12505 M114.9453125 -139.12505 C25.358660438506718 -139.12505, -64.22799162298656 -139.12505, -114.9453125 -139.12505 M114.9453125 -139.12505 C23.811201372439797 -139.12505, -67.3229097551204 -139.12505, -114.9453125 -139.12505" stroke="#999" stroke-width="1.3" fill="none" stroke-dasharray="0 0"/></g></g></g></g></g><defs><filter id="my-svg-drop-shadow" height="130%" width="130%"><feDropShadow dx="4" dy="4" stdDeviation="0" flood-opacity="0.06" flood-color="#000000"/></filter></defs><defs><filter id="my-svg-drop-shadow-small" height="150%" width="150%"><feDropShadow dx="2" dy="2" stdDeviation="0" flood-opacity="0.06" flood-color="#000000"/></filter></defs><linearGradient id="my-svg-gradient" gradientUnits="objectBoundingBox" x1="0%" y1="0%" x2="100%" y2="0%"><stop offset="0%" stop-color="hsl(0, 0%, 83.3333333333%)" stop-opacity="1"/><stop offset="100%" stop-color="hsl(0, 0%, 88.9215686275%)" stop-opacity="1"/></linearGradient></svg>