<svg id="my-svg" width="453.61328125" xmlns="http://www.w3.org/2000/svg" xmlns:xlink="http://www.w3.org/1999/xlink" class="flowchart" height="1196.046875" viewBox="0 0 453.61328125 1196.046875" role="graphics-document document" aria-roledescription="flowchart-v2" style="background-color: white;"><style>#my-svg{font-family:Arial,sans-serif;font-size:14px;fill:#000000;}@keyframes edge-animation-frame{from{stroke-dashoffset:0;}}@keyframes dash{to{stroke-dashoffset:0;}}#my-svg .edge-animation-slow{stroke-dasharray:9,5!important;stroke-dashoffset:900;animation:dash 50s linear infinite;stroke-linecap:round;}#my-svg .edge-animation-fast{stroke-dasharray:9,5!important;stroke-dashoffset:900;animation:dash 20s linear infinite;stroke-linecap:round;}#my-svg .error-icon{fill:#552222;}#my-svg .error-text{fill:#552222;stroke:#552222;}#my-svg .edge-thickness-normal{stroke-width:1px;}#my-svg .edge-thickness-thick{stroke-width:3.5px;}#my-svg .edge-pattern-solid{stroke-dasharray:0;}#my-svg .edge-thickness-invisible{stroke-width:0;fill:none;}#my-svg .edge-pattern-dashed{stroke-dasharray:3;}#my-svg .edge-pattern-dotted{stroke-dasharray:2;}#my-svg .marker{fill:#000000;stroke:#000000;}#my-svg .marker.cross{stroke:#000000;}#my-svg svg{font-family:Arial,sans-serif;font-size:14px;}#my-svg p{margin:0;}#my-svg .label{font-family:Arial,sans-serif;color:#000000;}#my-svg .cluster-label text{fill:#000000;}#my-svg .cluster-label span{color:#000000;}#my-svg .cluster-label span p{background-color:transparent;}#my-svg .label text,#my-svg span{fill:#000000;color:#000000;}#my-svg .node rect,#my-svg .node circle,#my-svg .node ellipse,#my-svg .node polygon,#my-svg .node path{fill:#eee;stroke:#999;stroke-width:1px;}#my-svg .rough-node .label text,#my-svg .node .label text,#my-svg .image-shape .label,#my-svg .icon-shape .label{text-anchor:middle;}#my-svg .node .katex path{fill:#000;stroke:#000;stroke-width:1px;}#my-svg .rough-node .label,#my-svg .node .label,#my-svg .image-shape .label,#my-svg .icon-shape .label{text-align:center;}#my-svg .node.clickable{cursor:pointer;}#my-svg .root .anchor path{fill:#000000!important;stroke-width:0;stroke:#000000;}#my-svg .arrowheadPath{fill:#333333;}#my-svg .edgePath .path{stroke:#000000;stroke-width:1px;}#my-svg .flowchart-link{stroke:#000000;fill:none;}#my-svg .edgeLabel{background-color:white;text-align:center;}#my-svg .edgeLabel p{background-color:white;}#my-svg .edgeLabel rect{opacity:0.5;background-color:white;fill:white;}#my-svg .labelBkg{background-color:rgba(255, 255, 255, 0.5);}#my-svg .cluster rect{fill:hsl(0, 0%, 98.9215686275%);stroke:#707070;stroke-width:1px;}#my-svg .cluster text{fill:#000000;}#my-svg .cluster span{color:#000000;}#my-svg div.mermaidTooltip{position:absolute;text-align:center;max-width:200px;padding:2px;font-family:Arial,sans-serif;font-size:12px;background:hsl(-160, 0%, 93.3333333333%);border:1px solid #707070;border-radius:2px;pointer-events:none;z-index:100;}#my-svg .flowchartTitleText{text-anchor:middle;font-size:18px;fill:#000000;}#my-svg rect.text{fill:none;stroke-width:0;}#my-svg .icon-shape,#my-svg .image-shape{background-color:white;text-align:center;}#my-svg .icon-shape p,#my-svg .image-shape p{background-color:white;padding:2px;}#my-svg .icon-shape .label rect,#my-svg .image-shape .label rect{opacity:0.5;background-color:white;fill:white;}#my-svg .label-icon{display:inline-block;height:1em;overflow:visible;vertical-align:-0.125em;}#my-svg .node .label-icon path{fill:currentColor;stroke:revert;stroke-width:revert;}#my-svg .node .neo-node{stroke:#999;}#my-svg [data-look="neo"].node rect,#my-svg [data-look="neo"].cluster rect,#my-svg [data-look="neo"].node polygon{stroke:url(#my-svg-gradient);filter:drop-shadow( 1px 2px 2px rgba(185,185,185,1));}#my-svg [data-look="neo"].node path{stroke:url(#my-svg-gradient);stroke-width:1px;}#my-svg [data-look="neo"].node .outer-path{filter:drop-shadow( 1px 2px 2px rgba(185,185,185,1));}#my-svg [data-look="neo"].node .neo-line path{stroke:#999;filter:none;}#my-svg [data-look="neo"].node circle{stroke:url(#my-svg-gradient);filter:drop-shadow( 1px 2px 2px rgba(185,185,185,1));}#my-svg [data-look="neo"].node circle .state-start{fill:#000000;}#my-svg [data-look="neo"].icon-shape .icon{fill:url(#my-svg-gradient);filter:drop-shadow( 1px 2px 2px rgba(185,185,185,1));}#my-svg [data-look="neo"].icon-shape .icon-neo path{stroke:url(#my-svg-gradient);filter:drop-shadow( 1px 2px 2px rgba(185,185,185,1));}#my-svg :root{--mermaid-font-family:"trebuchet ms",verdana,arial,sans-serif;}</style><g><marker id="my-svg_flowchart-v2-pointEnd" class="marker flowchart-v2" viewBox="0 0 10 10" refX="5" refY="5" markerUnits="userSpaceOnUse" markerWidth="8" markerHeight="8" orient="auto"><path d="M 0 0 L 10 5 L 0 10 z" class="arrowMarkerPath" style="stroke-width: 1; stroke-dasharray: 1, 0;"/></marker><marker id="my-svg_flowchart-v2-pointStart" class="marker flowchart-v2" viewBox="0 0 10 10" refX="4.5" refY="5" markerUnits="userSpaceOnUse" markerWidth="8" markerHeight="8" orient="auto"><path d="M 0 5 L 10 10 L 10 0 z" class="arrowMarkerPath" style="stroke-width: 1; stroke-dasharray: 1, 0;"/></marker><marker id="my-svg_flowchart-v2-pointEnd-margin" class="marker flowchart-v2" viewBox="0 0 11.5 14" refX="11.5" refY="7" markerUnits="userSpaceOnUse" markerWidth="10.5" markerHeight="14" orient="auto"><path d="M 0 0 L 11.5 7 L 0 14 z" class="arrowMarkerPath" style="stroke-width: 0; stroke-dasharray: 1, 0;"/></marker><marker id="my-svg_flowchart-v2-pointStart-margin" class="marker flowchart-v2" viewBox="0 0 11.5 14" refX="1" refY="7" markerUnits="userSpaceOnUse" markerWidth="11.5" markerHeight="14" orient="auto"><polygon points="0,7 11.5,14 11.5,0" class="arrowMarkerPath" style="stroke-width: 0; stroke-dasharray: 1, 0;"/></marker><marker id="my-svg_flowchart-v2-circleEnd" class="marker flowchart-v2" viewBox="0 0 10 10" refX="11" refY="5" markerUnits="userSpaceOnUse" markerWidth="11" markerHeight="11" orient="auto"><circle cx="5" cy="5" r="5" class="arrowMarkerPath" style="stroke-width: 1; stroke-dasharray: 1, 0;"/></marker><marker id="my-svg_flowchart-v2-circleStart" class="marker flowchart-v2" viewBox="0 0 10 10" refX="-1" refY="5" markerUnits="userSpaceOnUse" markerWidth="11" markerHeight="11" orient="auto"><circle cx="5" cy="5" r="5" class="arrowMarkerPath" style="stroke-width: 1; stroke-dasharray: 1, 0;"/></marker><marker id="my-svg_flowchart-v2-circleEnd-margin" class="marker flowchart-v2" viewBox="0 0 10 10" refY="5" refX="12.25" markerUnits="userSpaceOnUse" markerWidth="14" markerHeight="14" orient="auto"><circle cx="5" cy="5" r="5" class="arrowMarkerPath" style="stroke-width: 0; stroke-dasharray: 1, 0;"/></marker><marker id="my-svg_flowchart-v2-circleStart-margin" class="marker flowchart-v2" viewBox="0 0 10 10" refX="-2" refY="5" markerUnits="userSpaceOnUse" markerWidth="14" markerHeight="14" orient="auto"><circle cx="5" cy="5" r="5" class="arrowMarkerPath" style="stroke-width: 0; stroke-dasharray: 1, 0;"/></marker><marker id="my-svg_flowchart-v2-crossEnd" class="marker cross flowchart-v2" viewBox="0 0 11 11" refX="12" refY="5.2" markerUnits="userSpaceOnUse" markerWidth="11" markerHeight="11" orient="auto"><path d="M 1,1 l 9,9 M 10,1 l -9,9" class="arrowMarkerPath" style="stroke-width: 2; stroke-dasharray: 1, 0;"/></marker><marker id="my-svg_flowchart-v2-crossStart" class="marker cross flowchart-v2" viewBox="0 0 11 11" refX="-1" refY="5.2" markerUnits="userSpaceOnUse" markerWidth="11" markerHeight="11" orient="auto"><path d="M 1,1 l 9,9 M 10,1 l -9,9" class="arrowMarkerPath" style="stroke-width: 2; stroke-dasharray: 1, 0;"/></marker><marker id="my-svg_flowchart-v2-crossEnd-margin" class="marker cross flowchart-v2" viewBox="0 0 15 15" refX="17.7" refY="7.5" markerUnits="userSpaceOnUse" markerWidth="12" markerHeight="12" orient="auto"><path d="M 1,1 L 14,14 M 1,14 L 14,1" class="arrowMarkerPath" style="stroke-width: 2.5;"/></marker><marker id="my-svg_flowchart-v2-crossStart-margin" class="marker cross flowchart-v2" viewBox="0 0 15 15" refX="-3.5" refY="7.5" markerUnits="userSpaceOnUse" markerWidth="12" markerHeight="12" orient="auto"><path d="M 1,1 L 14,14 M 1,14 L 14,1" class="arrowMarkerPath" style="stroke-width: 2.5; stroke-dasharray: 1, 0;"/></marker><g class="root"><g class="clusters"/><g class="edgePaths"><path d="M208.047,44.5L207.964,48.583C207.88,52.667,207.714,60.833,207.63,68.417C207.547,76,207.547,83,207.547,86.5L207.547,90" id="my-svg-L_START_LOGIN_0" class="edge-thickness-normal edge-pattern-solid edge-thickness-normal edge-pattern-solid flowchart-link" style=";" data-edge="true" data-et="edge" data-id="L_START_LOGIN_0" data-points="W3sieCI6MjA4LjA0Njg3NSwieSI6NDQuNX0seyJ4IjoyMDcuNTQ2ODc1LCJ5Ijo2OX0seyJ4IjoyMDcuNTQ2ODc1LCJ5Ijo5NH1d" data-look="classic" marker-end="url(#my-svg_flowchart-v2-pointEnd)"/><path d="M253.536,204.089L273.024,217.671C292.512,231.252,331.489,258.415,350.977,277.247C370.465,296.078,370.465,306.578,370.465,311.828L370.465,317.078" id="my-svg-L_LOGIN_INVITE_VERIFY_0" class="edge-thickness-normal edge-pattern-solid edge-thickness-normal edge-pattern-solid flowchart-link" style=";" data-edge="true" data-et="edge" data-id="L_LOGIN_INVITE_VERIFY_0" data-points="W3sieCI6MjUzLjUzNTgxMzk5Nzc0NjMyLCJ5IjoyMDQuMDg5MTg2MDAyMjUzNjh9LHsieCI6MzcwLjQ2NDg0Mzc1LCJ5IjoyODUuNTc4MTI1fSx7IngiOjM3MC40NjQ4NDM3NSwieSI6MzIxLjA3ODEyNX1d" data-look="classic" marker-end="url(#my-svg_flowchart-v2-pointEnd)"/><path d="M370.465,372.078L370.465,377.995C370.465,383.911,370.465,395.745,370.465,406.911C370.465,418.078,370.465,428.578,370.465,433.828L370.465,439.078" id="my-svg-L_INVITE_VERIFY_INVITE_SETUP_0" class="edge-thickness-normal edge-pattern-solid edge-thickness-normal edge-pattern-solid flowchart-link" style=";" data-edge="true" data-et="edge" data-id="L_INVITE_VERIFY_INVITE_SETUP_0" data-points="W3sieCI6MzcwLjQ2NDg0Mzc1LCJ5IjozNzIuMDc4MTI1fSx7IngiOjM3MC40NjQ4NDM3NSwieSI6NDA3LjU3ODEyNX0seyJ4IjozNzAuNDY0ODQzNzUsInkiOjQ0My4wNzgxMjV9XQ==" data-look="classic" marker-end="url(#my-svg_flowchart-v2-pointEnd)"/><path d="M370.465,494.078L370.465,498.245C370.465,502.411,370.465,510.745,347.45,520.515C324.435,530.286,278.405,541.494,255.39,547.098L232.375,552.702" id="my-svg-L_INVITE_SETUP_LOGIN_PAGE_0" class="edge-thickness-normal edge-pattern-solid edge-thickness-normal edge-pattern-solid flowchart-link" style=";" data-edge="true" data-et="edge" data-id="L_INVITE_SETUP_LOGIN_PAGE_0" data-points="W3sieCI6MzcwLjQ2NDg0Mzc1LCJ5Ijo0OTQuMDc4MTI1fSx7IngiOjM3MC40NjQ4NDM3NSwieSI6NTE5LjA3ODEyNX0seyJ4IjoyMjguNDg4MjgxMjUsInkiOjU1My42NDgzNzc3NTkyNTcyfV0=" data-look="classic" marker-end="url(#my-svg_flowchart-v2-pointEnd)"/><path d="M185.345,227.876L181.521,237.493C177.698,247.11,170.05,266.344,166.226,286.128C162.402,305.911,162.402,326.245,162.402,346.578C162.402,366.911,162.402,387.245,162.402,402.661C162.402,418.078,162.402,428.578,162.402,433.828L162.402,439.078" id="my-svg-L_LOGIN_FORGOT_PWD_0" class="edge-thickness-normal edge-pattern-solid edge-thickness-normal edge-pattern-solid flowchart-link" style=";" data-edge="true" data-et="edge" data-id="L_LOGIN_FORGOT_PWD_0" data-points="W3sieCI6MTg1LjM0NTIyOTQ5NTkxMzY2LCJ5IjoyMjcuODc2NDc5NDk1OTEzNjZ9LHsieCI6MTYyLjQwMjM0Mzc1LCJ5IjoyODUuNTc4MTI1fSx7IngiOjE2Mi40MDIzNDM3NSwieSI6MzQ2LjU3ODEyNX0seyJ4IjoxNjIuNDAyMzQzNzUsInkiOjQwNy41NzgxMjV9LHsieCI6MTYyLjQwMjM0Mzc1LCJ5Ijo0NDMuMDc4MTI1fV0=" data-look="classic" marker-end="url(#my-svg_flowchart-v2-pointEnd)"/><path d="M162.402,494.078L162.402,498.245C162.402,502.411,162.402,510.745,162.448,518.412C162.494,526.078,162.586,533.078,162.632,536.578L162.678,540.078" id="my-svg-L_FORGOT_PWD_LOGIN_PAGE_0" class="edge-thickness-normal edge-pattern-solid edge-thickness-normal edge-pattern-solid flowchart-link" style=";" data-edge="true" data-et="edge" data-id="L_FORGOT_PWD_LOGIN_PAGE_0" data-points="W3sieCI6MTYyLjQwMjM0Mzc1LCJ5Ijo0OTQuMDc4MTI1fSx7IngiOjE2Mi40MDIzNDM3NSwieSI6NTE5LjA3ODEyNX0seyJ4IjoxNjIuNzMxMDg3NTYxODgxMiwieSI6NTQ0LjA3ODEyNX1d" data-look="classic" marker-end="url(#my-svg_flowchart-v2-pointEnd)"/><path d="M161.542,204.073L142.033,217.657C122.524,231.241,83.506,258.41,63.997,282.161C44.488,305.911,44.488,326.245,44.488,346.578C44.488,366.911,44.488,387.245,44.488,407.578C44.488,427.911,44.488,448.245,44.488,466.828C44.488,485.411,44.488,502.245,53.659,514.567C62.829,526.889,81.17,534.7,90.34,538.605L99.51,542.511" id="my-svg-L_LOGIN_LOGIN_PAGE_0" class="edge-thickness-normal edge-pattern-solid edge-thickness-normal edge-pattern-solid flowchart-link" style=";" data-edge="true" data-et="edge" data-id="L_LOGIN_LOGIN_PAGE_0" data-points="W3sieCI6MTYxLjU0MTY0MTQwMDYzNDEsInkiOjIwNC4wNzI4OTE0MDA2MzQxfSx7IngiOjQ0LjQ4ODI4MTI1LCJ5IjoyODUuNTc4MTI1fSx7IngiOjQ0LjQ4ODI4MTI1LCJ5IjozNDYuNTc4MTI1fSx7IngiOjQ0LjQ4ODI4MTI1LCJ5Ijo0MDcuNTc4MTI1fSx7IngiOjQ0LjQ4ODI4MTI1LCJ5Ijo0NjguNTc4MTI1fSx7IngiOjQ0LjQ4ODI4MTI1LCJ5Ijo1MTkuMDc4MTI1fSx7IngiOjEwMy4xOTAzMjMzMjkyMDc5MywieSI6NTQ0LjA3ODEyNX1d" data-look="classic" marker-end="url(#my-svg_flowchart-v2-pointEnd)"/><path d="M194.042,595.078L201.229,600.995C208.416,606.911,222.79,618.745,229.087,631.464C235.384,644.184,233.605,657.789,232.715,664.592L231.825,671.394" id="my-svg-L_LOGIN_PAGE_AUTH_0" class="edge-thickness-normal edge-pattern-solid edge-thickness-normal edge-pattern-solid flowchart-link" style=";" data-edge="true" data-et="edge" data-id="L_LOGIN_PAGE_AUTH_0" data-points="W3sieCI6MTk0LjA0MTY1NTk5Mzg1MjQ2LCJ5Ijo1OTUuMDc4MTI1fSx7IngiOjIzNy4xNjQwNjI1LCJ5Ijo2MzAuNTc4MTI1fSx7IngiOjIzMS4zMDU5MTU4MjQ3Nzc2NiwieSI6Njc1LjM2MDYwMzMyNDc3Nzd9XQ==" data-look="classic" marker-end="url(#my-svg_flowchart-v2-pointEnd)"/><path d="M213.468,674.633L212.592,667.291C211.716,659.948,209.963,645.263,205.105,632.54C200.247,619.817,192.282,609.055,188.3,603.674L184.318,598.293" id="my-svg-L_AUTH_LOGIN_PAGE_0" class="edge-thickness-normal edge-pattern-solid edge-thickness-normal edge-pattern-solid flowchart-link" style=";" data-edge="true" data-et="edge" data-id="L_AUTH_LOGIN_PAGE_0" data-points="W3sieCI6MjEzLjQ2ODM5OTk2MTU1NzAzLCJ5Ijo2NzQuNjMzMTYyNTM4NDQzfSx7IngiOjIwOC4yMTA5Mzc1LCJ5Ijo2MzAuNTc4MTI1fSx7IngiOjE4MS45MzgzMDA0NjEwNjU1OCwieSI6NTk1LjA3ODEyNX1d" data-look="classic" marker-end="url(#my-svg_flowchart-v2-pointEnd)"/><path d="M222.023,826.563L222.023,832.479C222.023,838.396,222.023,850.229,222.023,861.396C222.023,872.563,222.023,883.063,222.023,888.313L222.023,893.563" id="my-svg-L_AUTH_CHECK_PWD_0" class="edge-thickness-normal edge-pattern-solid edge-thickness-normal edge-pattern-solid flowchart-link" style=";" data-edge="true" data-et="edge" data-id="L_AUTH_CHECK_PWD_0" data-points="W3sieCI6MjIyLjAyMzQzNzUsInkiOjgyNi41NjI1fSx7IngiOjIyMi4wMjM0Mzc1LCJ5Ijo4NjIuMDYyNX0seyJ4IjoyMjIuMDIzNDM3NSwieSI6ODk3LjU2MjV9XQ==" data-look="classic" marker-end="url(#my-svg_flowchart-v2-pointEnd)"/><path d="M195.829,1039.852L191.189,1050.135C186.549,1060.417,177.268,1080.982,165.492,1096.774C153.715,1112.565,139.441,1123.584,132.305,1129.093L125.168,1134.603" id="my-svg-L_CHECK_PWD_RESET_PWD_0" class="edge-thickness-normal edge-pattern-solid edge-thickness-normal edge-pattern-solid flowchart-link" style=";" data-edge="true" data-et="edge" data-id="L_CHECK_PWD_RESET_PWD_0" data-points="W3sieCI6MTk1LjgyODc2OTg1MTMwNDg4LCJ5IjoxMDM5Ljg1MjIwNzM1MTMwNX0seyJ4IjoxNjcuOTg4MjgxMjUsInkiOjExMDEuNTQ2ODc1fSx7IngiOjEyMi4wMDE1MDQ4NjY4MDMyOSwieSI6MTEzNy4wNDY4NzV9XQ==" data-look="classic" marker-end="url(#my-svg_flowchart-v2-pointEnd)"/><path d="M88.969,1137.047L88.969,1131.13C88.969,1125.214,88.969,1113.38,88.969,1087.507C88.969,1061.633,88.969,1021.719,88.969,981.805C88.969,941.891,88.969,901.977,88.969,862.729C88.969,823.482,88.969,784.901,88.969,746.32C88.969,707.74,88.969,669.159,95.641,644.376C102.313,619.592,115.658,608.606,122.331,603.113L129.003,597.62" id="my-svg-L_RESET_PWD_LOGIN_PAGE_0" class="edge-thickness-normal edge-pattern-solid edge-thickness-normal edge-pattern-solid flowchart-link" style=";" data-edge="true" data-et="edge" data-id="L_RESET_PWD_LOGIN_PAGE_0" data-points="W3sieCI6ODguOTY4NzUsInkiOjExMzcuMDQ2ODc1fSx7IngiOjg4Ljk2ODc1LCJ5IjoxMTAxLjU0Njg3NX0seyJ4Ijo4OC45Njg3NSwieSI6OTgxLjgwNDY4NzV9LHsieCI6ODguOTY4NzUsInkiOjg2Mi4wNjI1fSx7IngiOjg4Ljk2ODc1LCJ5Ijo3NDYuMzIwMzEyNX0seyJ4Ijo4OC45Njg3NSwieSI6NjMwLjU3ODEyNX0seyJ4IjoxMzIuMDkxMTU2NTA2MTQ3NTQsInkiOjU5NS4wNzgxMjV9XQ==" data-look="classic" marker-end="url(#my-svg_flowchart-v2-pointEnd)"/><path d="M251.712,1036.359L257.624,1047.223C263.537,1058.088,275.362,1079.817,281.351,1097.266C287.339,1114.714,287.49,1127.88,287.566,1134.464L287.642,1141.047" id="my-svg-L_CHECK_PWD_ROLE_GATE_0" class="edge-thickness-normal edge-pattern-solid edge-thickness-normal edge-pattern-solid flowchart-link" style=";" data-edge="true" data-et="edge" data-id="L_CHECK_PWD_ROLE_GATE_0" data-points="W3sieCI6MjUxLjcxMTc5NjcxNjU1ODIsInkiOjEwMzYuMzU4NTE1NzgzNDQxOH0seyJ4IjoyODcuMTg3NSwieSI6MTEwMS41NDY4NzV9LHsieCI6Mjg3LjY4NzUsInkiOjExNDUuMDQ2ODc1fV0=" data-look="classic" marker-end="url(#my-svg_flowchart-v2-pointEnd)"/></g><g class="edgeLabels"><g class="edgeLabel"><g class="label" data-id="L_START_LOGIN_0" transform="translate(0, 0)"><foreignObject width="0" height="0"><div xmlns="http://www.w3.org/1999/xhtml" class="labelBkg" style="display: table-cell; white-space: nowrap; line-height: 1.5; max-width: 200px; text-align: center;"><span class="edgeLabel"></span></div></foreignObject></g></g><g class="edgeLabel" transform="translate(370.46484375, 285.578125)"><g class="label" data-id="L_LOGIN_INVITE_VERIFY_0" transform="translate(-35.796875, -10.5)"><foreignObject width="71.59375" height="21"><div xmlns="http://www.w3.org/1999/xhtml" class="labelBkg" style="display: table-cell; white-space: nowrap; line-height: 1.5; max-width: 200px; text-align: center;"><span class="edgeLabel"><p>No - Invited</p></span></div></foreignObject></g></g><g class="edgeLabel"><g class="label" data-id="L_INVITE_VERIFY_INVITE_SETUP_0" transform="translate(0, 0)"><foreignObject width="0" height="0"><div xmlns="http://www.w3.org/1999/xhtml" class="labelBkg" style="display: table-cell; white-space: nowrap; line-height: 1.5; max-width: 200px; text-align: center;"><span class="edgeLabel"></span></div></foreignObject></g></g><g class="edgeLabel"><g class="label" data-id="L_INVITE_SETUP_LOGIN_PAGE_0" transform="translate(0, 0)"><foreignObject width="0" height="0"><div xmlns="http://www.w3.org/1999/xhtml" class="labelBkg" style="display: table-cell; white-space: nowrap; line-height: 1.5; max-width: 200px; text-align: center;"><span class="edgeLabel"></span></div></foreignObject></g></g><g class="edgeLabel" transform="translate(162.40234375, 346.578125)"><g class="label" data-id="L_LOGIN_FORGOT_PWD_0" transform="translate(-48.6328125, -10.5)"><foreignObject width="97.265625" height="21"><div xmlns="http://www.w3.org/1999/xhtml" class="labelBkg" style="display: table-cell; white-space: nowrap; line-height: 1.5; max-width: 200px; text-align: center;"><span class="edgeLabel"><p>No - Not Invited</p></span></div></foreignObject></g></g><g class="edgeLabel"><g class="label" data-id="L_FORGOT_PWD_LOGIN_PAGE_0" transform="translate(0, 0)"><foreignObject width="0" height="0"><div xmlns="http://www.w3.org/1999/xhtml" class="labelBkg" style="display: table-cell; white-space: nowrap; line-height: 1.5; max-width: 200px; text-align: center;"><span class="edgeLabel"></span></div></foreignObject></g></g><g class="edgeLabel" transform="translate(44.48828125, 407.578125)"><g class="label" data-id="L_LOGIN_LOGIN_PAGE_0" transform="translate(-11.421875, -10.5)"><foreignObject width="22.84375" height="21"><div xmlns="http://www.w3.org/1999/xhtml" class="labelBkg" style="display: table-cell; white-space: nowrap; line-height: 1.5; max-width: 200px; text-align: center;"><span class="edgeLabel"><p>Yes</p></span></div></foreignObject></g></g><g class="edgeLabel"><g class="label" data-id="L_LOGIN_PAGE_AUTH_0" transform="translate(0, 0)"><foreignObject width="0" height="0"><div xmlns="http://www.w3.org/1999/xhtml" class="labelBkg" style="display: table-cell; white-space: nowrap; line-height: 1.5; max-width: 200px; text-align: center;"><span class="edgeLabel"></span></div></foreignObject></g></g><g class="edgeLabel" transform="translate(208.22297, 630.67899)"><g class="label" data-id="L_AUTH_LOGIN_PAGE_0" transform="translate(-8.953125, -10.5)"><foreignObject width="17.90625" height="21"><div xmlns="http://www.w3.org/1999/xhtml" class="labelBkg" style="display: table-cell; white-space: nowrap; line-height: 1.5; max-width: 200px; text-align: center;"><span class="edgeLabel"><p>No</p></span></div></foreignObject></g></g><g class="edgeLabel" transform="translate(222.0234375, 862.0625)"><g class="label" data-id="L_AUTH_CHECK_PWD_0" transform="translate(-11.421875, -10.5)"><foreignObject width="22.84375" height="21"><div xmlns="http://www.w3.org/1999/xhtml" class="labelBkg" style="display: table-cell; white-space: nowrap; line-height: 1.5; max-width: 200px; text-align: center;"><span class="edgeLabel"><p>Yes</p></span></div></foreignObject></g></g><g class="edgeLabel" transform="translate(169.96066, 1097.17608)"><g class="label" data-id="L_CHECK_PWD_RESET_PWD_0" transform="translate(-11.421875, -10.5)"><foreignObject width="22.84375" height="21"><div xmlns="http://www.w3.org/1999/xhtml" class="labelBkg" style="display: table-cell; white-space: nowrap; line-height: 1.5; max-width: 200px; text-align: center;"><span class="edgeLabel"><p>Yes</p></span></div></foreignObject></g></g><g class="edgeLabel"><g class="label" data-id="L_RESET_PWD_LOGIN_PAGE_0" transform="translate(0, 0)"><foreignObject width="0" height="0"><div xmlns="http://www.w3.org/1999/xhtml" class="labelBkg" style="display: table-cell; white-space: nowrap; line-height: 1.5; max-width: 200px; text-align: center;"><span class="edgeLabel"></span></div></foreignObject></g></g><g class="edgeLabel" transform="translate(287.1875, 1101.546875)"><g class="label" data-id="L_CHECK_PWD_ROLE_GATE_0" transform="translate(-8.953125, -10.5)"><foreignObject width="17.90625" height="21"><div xmlns="http://www.w3.org/1999/xhtml" class="labelBkg" style="display: table-cell; white-space: nowrap; line-height: 1.5; max-width: 200px; text-align: center;"><span class="edgeLabel"><p>No</p></span></div></foreignObject></g></g></g><g class="nodes"><g class="node default" id="my-svg-flowchart-START-0" data-look="classic" transform="translate(207.546875, 26)"><g class="basic label-container outer-path"><path d="M-31.734375 -18 C-8.478404974835087 -18, 14.777565050329827 -18, 31.734375 -18 C31.734375 -18, 31.734375 -18, 31.734375 -18 C31.984972700588035 -17.991963819500974, 32.23557040117607 -17.98392763900195, 32.88763895965283 -17.963017069506055 C33.34567608514424 -17.918830778880135, 33.80371321063566 -17.87464448825422, 34.03616391032111 -17.85222024881843 C34.42142525034793 -17.789934183109207, 34.806686590374746 -17.727648117399987, 35.1752303166247 -17.668064825839178 C35.47792097324549 -17.598977658706612, 35.78061162986628 -17.529890491574047, 36.30015751037113 -17.41130753470253 C36.586750328444865 -17.326248290654647, 36.8733431465186 -17.24118904660676, 37.40632292442517 -17.083003446192034 C37.68656192173768 -16.979872904680136, 37.966800919050186 -16.87674236316824, 38.48918108782873 -16.68450163222839 C38.71881520209198 -16.582849421698025, 38.94844931635522 -16.48119721116766, 39.544282304116045 -16.217439622243546 C39.84015100436971 -16.06308511083416, 40.136019704623365 -15.90873059942477, 40.567290936070876 -15.683736674221011 C40.885166018570395 -15.491038931168472, 41.20304110106991 -15.29834118811593, 41.55400322178988 -15.085585888053133 C41.886457890364966 -14.853679902985798, 42.21891255894006 -14.62177391791846, 42.50036454884189 -14.425445193623219 C42.81304957870416 -14.176087203206155, 43.12573460856644 -13.92672921278909, 43.402486115540185 -13.706027250644421 C43.59293589518857 -13.533065799792798, 43.78338567483696 -13.360104348941174, 44.256660910862756 -12.930288301759097 C44.4618895090086 -12.718372924592241, 44.66711810715445 -12.506457547425386, 45.059378947355675 -12.101416024703706 C45.26861937651049 -11.855630310500752, 45.47785980566531 -11.609844596297796, 45.807341684424536 -11.222816433457204 C46.02350709540871 -10.933174475812471, 46.23967250639289 -10.643532518167738, 46.4974755827452 -10.298099882199057 C46.693280900365295 -9.997290333244763, 46.889086217985394 -9.696480784290468, 47.12694473409623 -9.331066229589453 C47.2475216994975 -9.116969617777778, 47.36809866489876 -8.902873005966104, 47.693162514714004 -8.325689224335035 C47.84453563285119 -8.0113597056573, 47.99590875098837 -7.697030186979565, 48.193802214284624 -7.286100176203093 C48.34419080897627 -6.91463743974905, 48.49457940366791 -6.543174703295008, 48.62680659689568 -6.216570979583546 C48.71540324028006 -5.949732005667945, 48.80399988366444 -5.682893031752345, 48.99039635465989 -5.121496559358589 C49.073190420053116 -4.805766904839295, 49.155984485446346 -4.490037250320001, 49.28307741927283 -4.005376811213661 C49.370614874576084 -3.555890479279176, 49.45815232987934 -3.106404147344691, 49.5036471014601 -2.872798110600833 C49.54766625170655 -2.5313942738537802, 49.591685401953 -2.189990437106728, 49.65119903308557 -1.728414466338275 C49.6733816423823 -1.3829024210617098, 49.69556425167904 -1.0373903757851446, 49.72512689161238 -0.576928396289793 C49.72512689161238 -0.22105173909327125, 49.72512689161238 0.13482491810325048, 49.72512689161238 0.5769283962897886 C49.70931163494709 0.823263784697103, 49.6934963782818 1.0695991731044174, 49.65119903308557 1.7284144663382628 C49.59585775752509 2.157630471214397, 49.54051648196461 2.5868464760905314, 49.5036471014601 2.8727981106008205 C49.42076823658207 3.2983635652952206, 49.337889371704044 3.7239290199896207, 49.28307741927283 4.005376811213657 C49.18205095599528 4.390634500837109, 49.08102449271773 4.775892190460561, 48.99039635465989 5.121496559358577 C48.91559948059694 5.346772826772715, 48.840802606533984 5.572049094186854, 48.62680659689569 6.216570979583534 C48.506584178695654 6.513522676879954, 48.38636176049562 6.8104743741763745, 48.193802214284624 7.286100176203088 C48.07804717195215 7.526467998367606, 47.96229212961968 7.766835820532124, 47.693162514714004 8.325689224335031 C47.53117812873093 8.6133089043457, 47.36919374274786 8.900928584356372, 47.12694473409623 9.33106622958945 C46.93619979569928 9.624101677154899, 46.74545485730234 9.917137124720348, 46.49747558274521 10.298099882199049 C46.281336391361634 10.587706707967627, 46.065197199978066 10.877313533736205, 45.80734168442454 11.2228164334572 C45.57841425577607 11.491727617487408, 45.34948682712759 11.760638801517615, 45.05937894735568 12.101416024703695 C44.884918081432 12.281561192273378, 44.710457215508306 12.46170635984306, 44.25666091086276 12.930288301759093 C44.02165750555663 13.143712176608744, 43.786654100250495 13.357136051458395, 43.4024861155402 13.706027250644409 C43.17207706185867 13.889772339513005, 42.941668008177146 14.0735174283816, 42.500364548841894 14.425445193623217 C42.21906351435931 14.621668617952748, 41.937762479876724 14.81789204228228, 41.554003221789884 15.085585888053126 C41.178818920314704 15.313024816435071, 40.80363461883952 15.540463744817014, 40.56729093607088 15.68373667422101 C40.22377021339523 15.862951215205374, 39.88024949071958 16.04216575618974, 39.54428230411605 16.217439622243543 C39.29302686787656 16.328662950639064, 39.041771431637066 16.43988627903458, 38.48918108782874 16.68450163222839 C38.11171453403451 16.823412813287238, 37.734247980240276 16.96232399434609, 37.40632292442518 17.08300344619203 C36.97217888824312 17.21185511726232, 36.53803485206105 17.340706788332607, 36.30015751037115 17.411307534702527 C35.86983458419604 17.50952593448247, 35.43951165802093 17.60774433426241, 35.175230316624706 17.668064825839174 C34.80033663286098 17.728674729286155, 34.42544294909725 17.789284632733136, 34.03616391032112 17.85222024881843 C33.70599786010972 17.884070970599552, 33.375831809898315 17.915921692380678, 32.88763895965283 17.963017069506055 C32.44885667367788 17.97708796337936, 32.010074387702936 17.99115885725267, 31.734375000000004 18 C31.734375000000004 18, 31.734375 18, 31.734375 18 C6.578480734465213 18, -18.577413531069574 18, -31.734374999999996 18 C-32.09396763926908 17.988468563963252, -32.45356027853816 17.976937127926504, -32.887638959652826 17.963017069506055 C-33.261482558464635 17.92695282714139, -33.635326157276445 17.89088858477672, -34.036163910321115 17.85222024881843 C-34.29716568756567 17.81002350557254, -34.558167464810225 17.767826762326653, -35.1752303166247 17.668064825839174 C-35.60617117269449 17.569705387593142, -36.03711202876428 17.471345949347107, -36.30015751037113 17.41130753470253 C-36.71289578370148 17.28880898168549, -37.12563405703182 17.16631042866845, -37.40632292442516 17.083003446192038 C-37.742634880435645 16.95923753754654, -38.07894683644613 16.835471628901036, -38.48918108782873 16.68450163222839 C-38.88518033348228 16.50920451307782, -39.28117957913583 16.33390739392725, -39.544282304116045 16.217439622243546 C-39.93986662545111 16.011063535186896, -40.335450946786175 15.804687448130244, -40.567290936070876 15.683736674221013 C-40.7710904582021 15.56019220624613, -40.97488998033334 15.436647738271247, -41.55400322178986 15.085585888053139 C-41.82654588755315 14.895471922598515, -42.09908855331645 14.70535795714389, -42.50036454884189 14.42544519362322 C-42.84977465738135 14.146799930256481, -43.199184765920826 13.868154666889742, -43.402486115540185 13.706027250644423 C-43.72014538255802 13.41753750914246, -44.03780464957587 13.129047767640493, -44.25666091086275 12.930288301759106 C-44.5101403275155 12.668549993018003, -44.763619744168246 12.4068116842769, -45.05937894735568 12.101416024703703 C-45.216782084860846 11.91652134289789, -45.37418522236601 11.731626661092074, -45.807341684424536 11.222816433457206 C-46.03971418377755 10.911458453894365, -46.27208668313055 10.600100474331525, -46.4974755827452 10.29809988219906 C-46.74343996540794 9.920232539744392, -46.989404348070664 9.542365197289724, -47.12694473409623 9.33106622958946 C-47.2941366050428 9.03420013271106, -47.46132847598937 8.737334035832662, -47.693162514714004 8.325689224335036 C-47.890060829850675 7.91682566000469, -48.086959144987354 7.507962095674344, -48.193802214284624 7.286100176203095 C-48.31339470440683 6.9907044134377285, -48.43298719452905 6.695308650672363, -48.62680659689568 6.2165709795835475 C-48.70622666848783 5.977370377817985, -48.785646740079976 5.738169776052423, -48.99039635465989 5.121496559358584 C-49.059388332440946 4.858400246767096, -49.128380310222006 4.595303934175608, -49.28307741927282 4.005376811213663 C-49.337261303711415 3.7271540163895094, -49.391445188150016 3.4489312215653554, -49.5036471014601 2.8727981106008347 C-49.536057268989005 2.62143125135812, -49.56846743651791 2.370064392115405, -49.65119903308556 1.7284144663382852 C-49.66692427035374 1.4834812027033886, -49.68264950762192 1.2385479390684921, -49.72512689161238 0.5769283962897952 C-49.72512689161238 0.23371197032530783, -49.72512689161238 -0.10950445563917954, -49.72512689161238 -0.5769283962897864 C-49.707669043572245 -0.8488484712362031, -49.690211195532115 -1.1207685461826198, -49.65119903308557 -1.7284144663382603 C-49.61576850570566 -2.003206640147854, -49.58033797832575 -2.2779988139574474, -49.5036471014601 -2.8727981106008262 C-49.43786540692967 -3.21057320904854, -49.37208371239924 -3.5483483074962536, -49.28307741927283 -4.005376811213655 C-49.19445151187765 -4.343345806822692, -49.105825604482476 -4.681314802431728, -48.99039635465989 -5.121496559358575 C-48.847363446187806 -5.5522888904773655, -48.70433053771572 -5.983081221596157, -48.62680659689569 -6.2165709795835244 C-48.488062135080874 -6.559272482707809, -48.34931767326606 -6.901973985832093, -48.193802214284624 -7.286100176203086 C-48.09211619910595 -7.497253362453775, -47.99043018392728 -7.708406548704463, -47.693162514714004 -8.32568922433503 C-47.498706028704746 -8.670966406098875, -47.304249542695494 -9.01624358786272, -47.12694473409623 -9.331066229589455 C-46.92830825621789 -9.636225200973385, -46.72967177833956 -9.941384172357315, -46.49747558274521 -10.298099882199054 C-46.31544957216319 -10.541998153468256, -46.13342356158117 -10.785896424737459, -45.80734168442454 -11.2228164334572 C-45.56692516933231 -11.505223352171784, -45.32650865424007 -11.787630270886368, -45.05937894735568 -12.101416024703695 C-44.77875216754814 -12.39118621474209, -44.49812538774059 -12.680956404780485, -44.25666091086276 -12.930288301759086 C-44.05323091441307 -13.115038042071939, -43.849800917963385 -13.299787782384792, -43.402486115540206 -13.706027250644407 C-43.07459786547812 -13.967509404596141, -42.74670961541603 -14.228991558547875, -42.500364548841894 -14.425445193623215 C-42.267040955940246 -14.588201631615858, -42.0337173630386 -14.750958069608503, -41.554003221789884 -15.085585888053124 C-41.334108099106714 -15.218887603670844, -41.11421297642354 -15.352189319288561, -40.56729093607088 -15.683736674221008 C-40.33563877507616 -15.804589458231664, -40.103986614081435 -15.92544224224232, -39.54428230411605 -16.217439622243543 C-39.29345971222326 -16.32847134328665, -39.04263712033046 -16.43950306432976, -38.48918108782874 -16.684501632228386 C-38.10351192734522 -16.82643144837296, -37.71784276686169 -16.968361264517537, -37.40632292442518 -17.08300344619203 C-37.155288486578215 -17.157509149638358, -36.904254048731254 -17.23201485308468, -36.30015751037115 -17.411307534702523 C-35.97575720696378 -17.48534978704544, -35.65135690355641 -17.559392039388356, -35.175230316624706 -17.668064825839174 C-34.875373822276444 -17.71654329842356, -34.57551732792819 -17.76502177100794, -34.03616391032112 -17.85222024881843 C-33.80141580576874 -17.874866116138698, -33.56666770121637 -17.897511983458962, -32.88763895965283 -17.963017069506055 C-32.63445636798975 -17.97113614243067, -32.381273776326665 -17.979255215355288, -31.734375000000007 -18 C-31.734375000000004 -18, -31.734375000000004 -18, -31.734375 -18" stroke="none" stroke-width="0" fill="#eee" style=""/><path d="M-31.734375 -18 C-17.68632554933989 -18, -3.6382760986797855 -18, 31.734375 -18 M-31.734375 -18 C-14.2546362654838 -18, 3.2251024690324 -18, 31.734375 -18 M31.734375 -18 C31.734375 -18, 31.734375 -18, 31.734375 -18 M31.734375 -18 C31.734375 -18, 31.734375 -18, 31.734375 -18 M31.734375 -18 C32.177026827951366 -17.985805017447113, 32.61967865590274 -17.97161003489423, 32.88763895965283 -17.963017069506055 M31.734375 -18 C32.114465902895525 -17.987811224546203, 32.49455680579105 -17.975622449092405, 32.88763895965283 -17.963017069506055 M32.88763895965283 -17.963017069506055 C33.31258700253417 -17.922022842884086, 33.73753504541552 -17.881028616262117, 34.03616391032111 -17.85222024881843 M32.88763895965283 -17.963017069506055 C33.20529013274047 -17.93237364286972, 33.522941305828105 -17.901730216233382, 34.03616391032111 -17.85222024881843 M34.03616391032111 -17.85222024881843 C34.29082298581247 -17.811048944403613, 34.54548206130384 -17.769877639988795, 35.1752303166247 -17.668064825839178 M34.03616391032111 -17.85222024881843 C34.294156561442904 -17.81050999774795, 34.55214921256469 -17.76879974667747, 35.1752303166247 -17.668064825839178 M35.1752303166247 -17.668064825839178 C35.47613192134265 -17.59938599812878, 35.777033526060606 -17.53070717041838, 36.30015751037113 -17.41130753470253 M35.1752303166247 -17.668064825839178 C35.55136661797237 -17.582214169575323, 35.92750291932004 -17.496363513311472, 36.30015751037113 -17.41130753470253 M36.30015751037113 -17.41130753470253 C36.628775799059746 -17.313775351572346, 36.95739408774837 -17.21624316844216, 37.40632292442517 -17.083003446192034 M36.30015751037113 -17.41130753470253 C36.6038847072663 -17.321162896960633, 36.90761190416148 -17.231018259218732, 37.40632292442517 -17.083003446192034 M37.40632292442517 -17.083003446192034 C37.77344856279716 -16.947897817598946, 38.14057420116914 -16.812792189005854, 38.48918108782873 -16.68450163222839 M37.40632292442517 -17.083003446192034 C37.6244581129575 -17.002727680392557, 37.842593301489835 -16.92245191459308, 38.48918108782873 -16.68450163222839 M38.48918108782873 -16.68450163222839 C38.79003005354057 -16.551324719475247, 39.0908790192524 -16.418147806722104, 39.544282304116045 -16.217439622243546 M38.48918108782873 -16.68450163222839 C38.8892848183988 -16.507387579360497, 39.289388548968866 -16.3302735264926, 39.544282304116045 -16.217439622243546 M39.544282304116045 -16.217439622243546 C39.84290141597383 -16.06165022286201, 40.14152052783161 -15.905860823480475, 40.567290936070876 -15.683736674221011 M39.544282304116045 -16.217439622243546 C39.8634711610049 -16.050919000054847, 40.18266001789377 -15.88439837786615, 40.567290936070876 -15.683736674221011 M40.567290936070876 -15.683736674221011 C40.85305061545782 -15.51050747726637, 41.13881029484477 -15.337278280311729, 41.55400322178988 -15.085585888053133 M40.567290936070876 -15.683736674221011 C40.911321767520825 -15.475183162446477, 41.255352598970774 -15.266629650671943, 41.55400322178988 -15.085585888053133 M41.55400322178988 -15.085585888053133 C41.83866692929353 -14.88701680859187, 42.12333063679719 -14.688447729130607, 42.50036454884189 -14.425445193623219 M41.55400322178988 -15.085585888053133 C41.76194947235199 -14.940531585509103, 41.96989572291411 -14.795477282965074, 42.50036454884189 -14.425445193623219 M42.50036454884189 -14.425445193623219 C42.748787120010824 -14.227334803918245, 42.99720969117976 -14.029224414213271, 43.402486115540185 -13.706027250644421 M42.50036454884189 -14.425445193623219 C42.77482938469415 -14.206566790847063, 43.04929422054641 -13.987688388070906, 43.402486115540185 -13.706027250644421 M43.402486115540185 -13.706027250644421 C43.63897389356072 -13.4912553077699, 43.875461671581256 -13.276483364895379, 44.256660910862756 -12.930288301759097 M43.402486115540185 -13.706027250644421 C43.58792032008983 -13.537620812392632, 43.773354524639466 -13.369214374140842, 44.256660910862756 -12.930288301759097 M44.256660910862756 -12.930288301759097 C44.522365571534785 -12.655926424856887, 44.78807023220681 -12.381564547954676, 45.059378947355675 -12.101416024703706 M44.256660910862756 -12.930288301759097 C44.49913481250925 -12.679914090831542, 44.74160871415574 -12.429539879903986, 45.059378947355675 -12.101416024703706 M45.059378947355675 -12.101416024703706 C45.263715795254235 -11.86139033606603, 45.468052643152795 -11.621364647428356, 45.807341684424536 -11.222816433457204 M45.059378947355675 -12.101416024703706 C45.322758039617774 -11.792035956237738, 45.58613713187988 -11.482655887771772, 45.807341684424536 -11.222816433457204 M45.807341684424536 -11.222816433457204 C46.061548655680205 -10.882202250706108, 46.315755626935875 -10.541588067955011, 46.4974755827452 -10.298099882199057 M45.807341684424536 -11.222816433457204 C45.95129061915614 -11.02993797493459, 46.095239553887744 -10.837059516411975, 46.4974755827452 -10.298099882199057 M46.4974755827452 -10.298099882199057 C46.72266867212107 -9.95214282410624, 46.94786176149693 -9.606185766013422, 47.12694473409623 -9.331066229589453 M46.4974755827452 -10.298099882199057 C46.69039761523966 -10.001719833468204, 46.88331964773412 -9.705339784737351, 47.12694473409623 -9.331066229589453 M47.12694473409623 -9.331066229589453 C47.33557365675304 -8.960624451443046, 47.544202579409856 -8.590182673296637, 47.693162514714004 -8.325689224335035 M47.12694473409623 -9.331066229589453 C47.26729220203222 -9.081865088546905, 47.40763966996821 -8.832663947504358, 47.693162514714004 -8.325689224335035 M47.693162514714004 -8.325689224335035 C47.883302494930916 -7.930859487070769, 48.073442475147836 -7.536029749806503, 48.193802214284624 -7.286100176203093 M47.693162514714004 -8.325689224335035 C47.88435402894955 -7.928675954181857, 48.07554554318509 -7.53166268402868, 48.193802214284624 -7.286100176203093 M48.193802214284624 -7.286100176203093 C48.35250170078234 -6.894109376307881, 48.511201187280065 -6.502118576412668, 48.62680659689568 -6.216570979583546 M48.193802214284624 -7.286100176203093 C48.31314620242001 -6.991318218149654, 48.43249019055539 -6.696536260096215, 48.62680659689568 -6.216570979583546 M48.62680659689568 -6.216570979583546 C48.702706748964935 -5.9879718145979215, 48.77860690103419 -5.759372649612297, 48.99039635465989 -5.121496559358589 M48.62680659689568 -6.216570979583546 C48.77212055730586 -5.778908483463496, 48.91743451771604 -5.341245987343447, 48.99039635465989 -5.121496559358589 M48.99039635465989 -5.121496559358589 C49.10694418963161 -4.677049152460227, 49.22349202460333 -4.2326017455618645, 49.28307741927283 -4.005376811213661 M48.99039635465989 -5.121496559358589 C49.06674742169493 -4.830336849992229, 49.14309848872996 -4.539177140625867, 49.28307741927283 -4.005376811213661 M49.28307741927283 -4.005376811213661 C49.350013026364515 -3.6616766156434197, 49.4169486334562 -3.3179764200731787, 49.5036471014601 -2.872798110600833 M49.28307741927283 -4.005376811213661 C49.355755256697606 -3.632191476503814, 49.42843309412238 -3.259006141793967, 49.5036471014601 -2.872798110600833 M49.5036471014601 -2.872798110600833 C49.54464497680234 -2.554826685392663, 49.585642852144574 -2.236855260184493, 49.65119903308557 -1.728414466338275 M49.5036471014601 -2.872798110600833 C49.540829109188685 -2.584421801075833, 49.578011116917274 -2.2960454915508337, 49.65119903308557 -1.728414466338275 M49.65119903308557 -1.728414466338275 C49.667419154411945 -1.4757729840336473, 49.68363927573832 -1.2231315017290196, 49.72512689161238 -0.576928396289793 M49.65119903308557 -1.728414466338275 C49.67067084963184 -1.4251252062626691, 49.69014266617811 -1.1218359461870633, 49.72512689161238 -0.576928396289793 M49.72512689161238 -0.576928396289793 C49.72512689161238 -0.2642433847937371, 49.72512689161238 0.048441626702318774, 49.72512689161238 0.5769283962897886 M49.72512689161238 -0.576928396289793 C49.72512689161238 -0.11697845250065919, 49.72512689161238 0.3429714912884746, 49.72512689161238 0.5769283962897886 M49.72512689161238 0.5769283962897886 C49.69921956018825 0.980455995242195, 49.67331222876412 1.3839835941946013, 49.65119903308557 1.7284144663382628 M49.72512689161238 0.5769283962897886 C49.70641952064146 0.868310799479949, 49.68771214967054 1.1596932026701094, 49.65119903308557 1.7284144663382628 M49.65119903308557 1.7284144663382628 C49.593189449906525 2.1783253381870606, 49.53517986672748 2.628236210035859, 49.5036471014601 2.8727981106008205 M49.65119903308557 1.7284144663382628 C49.620216837513844 1.9687062570660263, 49.58923464194212 2.2089980477937896, 49.5036471014601 2.8727981106008205 M49.5036471014601 2.8727981106008205 C49.45484148025461 3.1234046604193337, 49.40603585904912 3.374011210237847, 49.28307741927283 4.005376811213657 M49.5036471014601 2.8727981106008205 C49.458654085216985 3.103827739731877, 49.41366106897387 3.3348573688629335, 49.28307741927283 4.005376811213657 M49.28307741927283 4.005376811213657 C49.18561392758657 4.377047345957855, 49.08815043590031 4.7487178807020545, 48.99039635465989 5.121496559358577 M49.28307741927283 4.005376811213657 C49.20610086420848 4.298921777524006, 49.12912430914414 4.592466743834355, 48.99039635465989 5.121496559358577 M48.99039635465989 5.121496559358577 C48.85041776797828 5.543089759884568, 48.71043918129666 5.96468296041056, 48.62680659689569 6.216570979583534 M48.99039635465989 5.121496559358577 C48.876420072123594 5.46477496270342, 48.762443789587294 5.808053366048264, 48.62680659689569 6.216570979583534 M48.62680659689569 6.216570979583534 C48.50798069865785 6.5100732455734525, 48.38915480042001 6.80357551156337, 48.193802214284624 7.286100176203088 M48.62680659689569 6.216570979583534 C48.511397249947905 6.501634297832485, 48.395987903000126 6.786697616081435, 48.193802214284624 7.286100176203088 M48.193802214284624 7.286100176203088 C48.08202270101908 7.518212727197438, 47.97024318775353 7.750325278191788, 47.693162514714004 8.325689224335031 M48.193802214284624 7.286100176203088 C48.02862964813529 7.629084543938933, 47.86345708198596 7.972068911674778, 47.693162514714004 8.325689224335031 M47.693162514714004 8.325689224335031 C47.55015775045446 8.579608664080478, 47.407152986194916 8.833528103825923, 47.12694473409623 9.33106622958945 M47.693162514714004 8.325689224335031 C47.547380950229844 8.584539154060792, 47.40159938574568 8.843389083786551, 47.12694473409623 9.33106622958945 M47.12694473409623 9.33106622958945 C46.89414511795364 9.68870895543439, 46.661345501811056 10.046351681279328, 46.49747558274521 10.298099882199049 M47.12694473409623 9.33106622958945 C46.98466885148013 9.549640191711667, 46.842392968864026 9.768214153833883, 46.49747558274521 10.298099882199049 M46.49747558274521 10.298099882199049 C46.26390816548571 10.611058942897326, 46.030340748226216 10.924018003595602, 45.80734168442454 11.2228164334572 M46.49747558274521 10.298099882199049 C46.3213849596132 10.534045275010161, 46.14529433648118 10.769990667821276, 45.80734168442454 11.2228164334572 M45.80734168442454 11.2228164334572 C45.62397463239216 11.43820980665527, 45.44060758035979 11.653603179853338, 45.05937894735568 12.101416024703695 M45.80734168442454 11.2228164334572 C45.62911027165838 11.432177192547028, 45.4508788588922 11.641537951636854, 45.05937894735568 12.101416024703695 M45.05937894735568 12.101416024703695 C44.81283948414901 12.355988261730952, 44.56630002094234 12.610560498758208, 44.25666091086276 12.930288301759093 M45.05937894735568 12.101416024703695 C44.77308751336769 12.397035435260165, 44.486796079379694 12.692654845816636, 44.25666091086276 12.930288301759093 M44.25666091086276 12.930288301759093 C43.956873949074925 13.20254688852645, 43.657086987287094 13.474805475293808, 43.4024861155402 13.706027250644409 M44.25666091086276 12.930288301759093 C44.018531895503614 13.146550772959786, 43.78040288014446 13.362813244160478, 43.4024861155402 13.706027250644409 M43.4024861155402 13.706027250644409 C43.097517168087336 13.949231870673549, 42.792548220634465 14.192436490702688, 42.500364548841894 14.425445193623217 M43.4024861155402 13.706027250644409 C43.10447233980234 13.94368530631572, 42.806458564064485 14.181343361987032, 42.500364548841894 14.425445193623217 M42.500364548841894 14.425445193623217 C42.22345091120811 14.618608159838374, 41.94653727357432 14.811771126053532, 41.554003221789884 15.085585888053126 M42.500364548841894 14.425445193623217 C42.14546644705114 14.67300674614123, 41.7905683452604 14.92056829865924, 41.554003221789884 15.085585888053126 M41.554003221789884 15.085585888053126 C41.334385166960914 15.218719643509393, 41.11476711213195 15.351853398965662, 40.56729093607088 15.68373667422101 M41.554003221789884 15.085585888053126 C41.18521494848598 15.309147506570408, 40.81642667518208 15.53270912508769, 40.56729093607088 15.68373667422101 M40.56729093607088 15.68373667422101 C40.24094208538485 15.853992660587497, 39.91459323469882 16.024248646953986, 39.54428230411605 16.217439622243543 M40.56729093607088 15.68373667422101 C40.22030218363798 15.86476048410835, 39.873313431205084 16.04578429399569, 39.54428230411605 16.217439622243543 M39.54428230411605 16.217439622243543 C39.24029386699764 16.352006285859268, 38.936305429879226 16.486572949474994, 38.48918108782874 16.68450163222839 M39.54428230411605 16.217439622243543 C39.19500535293929 16.372054167596865, 38.84572840176252 16.526668712950187, 38.48918108782874 16.68450163222839 M38.48918108782874 16.68450163222839 C38.191505183087735 16.79404911685898, 37.893829278346736 16.903596601489564, 37.40632292442518 17.08300344619203 M38.48918108782874 16.68450163222839 C38.06393081779756 16.840997662570267, 37.63868054776638 16.997493692912144, 37.40632292442518 17.08300344619203 M37.40632292442518 17.08300344619203 C37.063428426864974 17.184772733177955, 36.72053392930477 17.28654202016388, 36.30015751037115 17.411307534702527 M37.40632292442518 17.08300344619203 C36.979250155188666 17.209756402350717, 36.55217738595215 17.336509358509407, 36.30015751037115 17.411307534702527 M36.30015751037115 17.411307534702527 C36.01412498369502 17.476592592379678, 35.72809245701889 17.541877650056833, 35.175230316624706 17.668064825839174 M36.30015751037115 17.411307534702527 C36.012354646782654 17.4769966602274, 35.724551783194165 17.54268578575227, 35.175230316624706 17.668064825839174 M35.175230316624706 17.668064825839174 C34.763614016569825 17.734611757099966, 34.351997716514944 17.801158688360758, 34.03616391032112 17.85222024881843 M35.175230316624706 17.668064825839174 C34.76878105726063 17.733776390032077, 34.36233179789655 17.79948795422498, 34.03616391032112 17.85222024881843 M34.03616391032112 17.85222024881843 C33.75797343833796 17.879056949077654, 33.479782966354804 17.905893649336875, 32.88763895965283 17.963017069506055 M34.03616391032112 17.85222024881843 C33.65775559547454 17.888724843849097, 33.27934728062797 17.925229438879764, 32.88763895965283 17.963017069506055 M32.88763895965283 17.963017069506055 C32.44384370413599 17.97724871955542, 32.00004844861916 17.99148036960478, 31.734375000000004 18 M32.88763895965283 17.963017069506055 C32.504647224897155 17.97529886899148, 32.12165549014148 17.98758066847691, 31.734375000000004 18 M31.734375000000004 18 C31.734375000000004 18, 31.734375000000004 18, 31.734375 18 M31.734375000000004 18 C31.734375000000004 18, 31.734375000000004 18, 31.734375 18 M31.734375 18 C15.721210414054266 18, -0.29195417189146866 18, -31.734374999999996 18 M31.734375 18 C11.723655592493728 18, -8.287063815012544 18, -31.734374999999996 18 M-31.734374999999996 18 C-32.08314533040534 17.988815614344166, -32.431915660810674 17.977631228688335, -32.887638959652826 17.963017069506055 M-31.734374999999996 18 C-32.03620059680915 17.990321040578216, -32.338026193618305 17.980642081156432, -32.887638959652826 17.963017069506055 M-32.887638959652826 17.963017069506055 C-33.19524391299846 17.933342789605884, -33.50284886634409 17.903668509705714, -34.036163910321115 17.85222024881843 M-32.887638959652826 17.963017069506055 C-33.217535383771775 17.931192358229797, -33.547431807890725 17.89936764695354, -34.036163910321115 17.85222024881843 M-34.036163910321115 17.85222024881843 C-34.43493193374282 17.787750527283816, -34.83369995716452 17.7232808057492, -35.1752303166247 17.668064825839174 M-34.036163910321115 17.85222024881843 C-34.35511164639028 17.800655252327402, -34.67405938245944 17.74909025583637, -35.1752303166247 17.668064825839174 M-35.1752303166247 17.668064825839174 C-35.59090273900629 17.573190307946632, -36.00657516138788 17.478315790054086, -36.30015751037113 17.41130753470253 M-35.1752303166247 17.668064825839174 C-35.47397395050879 17.59987854088953, -35.77271758439289 17.531692255939884, -36.30015751037113 17.41130753470253 M-36.30015751037113 17.41130753470253 C-36.628517181110126 17.313852108022278, -36.95687685184913 17.216396681342026, -37.40632292442516 17.083003446192038 M-36.30015751037113 17.41130753470253 C-36.7206936650097 17.286494611445125, -37.14122981964826 17.16168168818772, -37.40632292442516 17.083003446192038 M-37.40632292442516 17.083003446192038 C-37.78817679247377 16.942477692931686, -38.17003066052238 16.801951939671337, -38.48918108782873 16.68450163222839 M-37.40632292442516 17.083003446192038 C-37.70807401645955 16.971956254966866, -38.009825108493935 16.860909063741694, -38.48918108782873 16.68450163222839 M-38.48918108782873 16.68450163222839 C-38.785558757289074 16.553304029689492, -39.081936426749415 16.422106427150595, -39.544282304116045 16.217439622243546 M-38.48918108782873 16.68450163222839 C-38.83330440145098 16.532168449343228, -39.17742771507322 16.37983526645807, -39.544282304116045 16.217439622243546 M-39.544282304116045 16.217439622243546 C-39.90299190009609 16.03030105578522, -40.261701496076135 15.843162489326891, -40.567290936070876 15.683736674221013 M-39.544282304116045 16.217439622243546 C-39.83694703665158 16.064756618740464, -40.129611769187115 15.912073615237384, -40.567290936070876 15.683736674221013 M-40.567290936070876 15.683736674221013 C-40.864602443125065 15.50350469144841, -41.16191395017926 15.323272708675805, -41.55400322178986 15.085585888053139 M-40.567290936070876 15.683736674221013 C-40.76517592833645 15.563777629008326, -40.963060920602025 15.44381858379564, -41.55400322178986 15.085585888053139 M-41.55400322178986 15.085585888053139 C-41.89239573035223 14.849537922855635, -42.230788238914585 14.613489957658132, -42.50036454884189 14.42544519362322 M-41.55400322178986 15.085585888053139 C-41.77335786044777 14.932573587834648, -41.99271249910568 14.779561287616156, -42.50036454884189 14.42544519362322 M-42.50036454884189 14.42544519362322 C-42.75020193924228 14.226206523231083, -43.000039329642675 14.026967852838945, -43.402486115540185 13.706027250644423 M-42.50036454884189 14.42544519362322 C-42.7372985676433 14.23649661870813, -42.97423258644471 14.047548043793043, -43.402486115540185 13.706027250644423 M-43.402486115540185 13.706027250644423 C-43.601201833185975 13.525558893608293, -43.799917550831765 13.345090536572162, -44.25666091086275 12.930288301759106 M-43.402486115540185 13.706027250644423 C-43.61129514502721 13.516392414848479, -43.820104174514235 13.326757579052533, -44.25666091086275 12.930288301759106 M-44.25666091086275 12.930288301759106 C-44.52611190561598 12.652058027338308, -44.795562900369205 12.373827752917512, -45.05937894735568 12.101416024703703 M-44.25666091086275 12.930288301759106 C-44.44353659810757 12.737323811899566, -44.6304122853524 12.544359322040027, -45.05937894735568 12.101416024703703 M-45.05937894735568 12.101416024703703 C-45.26026668191625 11.865441860852943, -45.461154416476816 11.629467697002184, -45.807341684424536 11.222816433457206 M-45.05937894735568 12.101416024703703 C-45.33283647277405 11.780197255173295, -45.606293998192406 11.45897848564289, -45.807341684424536 11.222816433457206 M-45.807341684424536 11.222816433457206 C-46.068309176376786 10.873143768868795, -46.32927666832904 10.523471104280386, -46.4974755827452 10.29809988219906 M-45.807341684424536 11.222816433457206 C-46.0213583904086 10.936053544761572, -46.235375096392666 10.64929065606594, -46.4974755827452 10.29809988219906 M-46.4974755827452 10.29809988219906 C-46.702092999533896 9.983752582541848, -46.90671041632259 9.66940528288464, -47.12694473409623 9.33106622958946 M-46.4974755827452 10.29809988219906 C-46.641869403140824 10.076272198901574, -46.786263223536444 9.854444515604088, -47.12694473409623 9.33106622958946 M-47.12694473409623 9.33106622958946 C-47.27471433063072 9.068686347648253, -47.42248392716522 8.806306465707044, -47.693162514714004 8.325689224335036 M-47.12694473409623 9.33106622958946 C-47.351277703020244 8.932740327088505, -47.57561067194427 8.534414424587549, -47.693162514714004 8.325689224335036 M-47.693162514714004 8.325689224335036 C-47.83262687733485 8.036088491293524, -47.972091239955695 7.7464877582520115, -48.193802214284624 7.286100176203095 M-47.693162514714004 8.325689224335036 C-47.82553432396488 8.050816330122592, -47.957906133215765 7.775943435910148, -48.193802214284624 7.286100176203095 M-48.193802214284624 7.286100176203095 C-48.3410944771641 6.922285439188607, -48.48838674004358 6.558470702174118, -48.62680659689568 6.2165709795835475 M-48.193802214284624 7.286100176203095 C-48.340276033127296 6.924307011783054, -48.48674985196997 6.562513847363014, -48.62680659689568 6.2165709795835475 M-48.62680659689568 6.2165709795835475 C-48.70191057851788 5.990369753131906, -48.77701456014009 5.764168526680264, -48.99039635465989 5.121496559358584 M-48.62680659689568 6.2165709795835475 C-48.751472109384 5.841098318720748, -48.87613762187231 5.465625657857948, -48.99039635465989 5.121496559358584 M-48.99039635465989 5.121496559358584 C-49.06681778662204 4.8300685180287894, -49.143239218584185 4.538640476698995, -49.28307741927282 4.005376811213663 M-48.99039635465989 5.121496559358584 C-49.06656576650725 4.831029579952679, -49.14273517835461 4.540562600546773, -49.28307741927282 4.005376811213663 M-49.28307741927282 4.005376811213663 C-49.33220926203659 3.75309518264036, -49.38134110480036 3.500813554067056, -49.5036471014601 2.8727981106008347 M-49.28307741927282 4.005376811213663 C-49.36247932374529 3.597664813345987, -49.44188122821777 3.1899528154783106, -49.5036471014601 2.8727981106008347 M-49.5036471014601 2.8727981106008347 C-49.53838256231539 2.603396735499808, -49.57311802317067 2.3339953603987817, -49.65119903308556 1.7284144663382852 M-49.5036471014601 2.8727981106008347 C-49.54115847625822 2.5818672951254293, -49.57866985105633 2.290936479650024, -49.65119903308556 1.7284144663382852 M-49.65119903308556 1.7284144663382852 C-49.6692134070123 1.4478260514884722, -49.68722778093903 1.1672376366386594, -49.72512689161238 0.5769283962897952 M-49.65119903308556 1.7284144663382852 C-49.67335912671507 1.3832531207530794, -49.69551922034458 1.0380917751678733, -49.72512689161238 0.5769283962897952 M-49.72512689161238 0.5769283962897952 C-49.72512689161238 0.2306511811872775, -49.72512689161238 -0.11562603391524018, -49.72512689161238 -0.5769283962897864 M-49.72512689161238 0.5769283962897952 C-49.72512689161238 0.1526782581654822, -49.72512689161238 -0.2715718799588308, -49.72512689161238 -0.5769283962897864 M-49.72512689161238 -0.5769283962897864 C-49.702793449113535 -0.9247897904396398, -49.68046000661469 -1.2726511845894932, -49.65119903308557 -1.7284144663382603 M-49.72512689161238 -0.5769283962897864 C-49.70676908354155 -0.8628660751489329, -49.68841127547072 -1.1488037540080793, -49.65119903308557 -1.7284144663382603 M-49.65119903308557 -1.7284144663382603 C-49.616356694930296 -1.9986447606726707, -49.581514356775024 -2.268875055007081, -49.5036471014601 -2.8727981106008262 M-49.65119903308557 -1.7284144663382603 C-49.598900260045944 -2.1340334224727195, -49.54660148700632 -2.5396523786071787, -49.5036471014601 -2.8727981106008262 M-49.5036471014601 -2.8727981106008262 C-49.43117317252748 -3.244936418299536, -49.35869924359486 -3.6170747259982456, -49.28307741927283 -4.005376811213655 M-49.5036471014601 -2.8727981106008262 C-49.442831890317564 -3.1850713665183337, -49.38201667917503 -3.4973446224358415, -49.28307741927283 -4.005376811213655 M-49.28307741927283 -4.005376811213655 C-49.197688472944805 -4.33100187136584, -49.11229952661678 -4.656626931518023, -48.99039635465989 -5.121496559358575 M-49.28307741927283 -4.005376811213655 C-49.171014448457484 -4.432721487331348, -49.05895147764213 -4.860066163449039, -48.99039635465989 -5.121496559358575 M-48.99039635465989 -5.121496559358575 C-48.84769972062592 -5.5512760854478325, -48.705003086591944 -5.981055611537091, -48.62680659689569 -6.2165709795835244 M-48.99039635465989 -5.121496559358575 C-48.913479312141405 -5.353158436357813, -48.83656226962291 -5.58482031335705, -48.62680659689569 -6.2165709795835244 M-48.62680659689569 -6.2165709795835244 C-48.503541238594885 -6.5210387977601, -48.38027588029407 -6.825506615936675, -48.193802214284624 -7.286100176203086 M-48.62680659689569 -6.2165709795835244 C-48.50804846844885 -6.50990585287944, -48.389290340002006 -6.803240726175355, -48.193802214284624 -7.286100176203086 M-48.193802214284624 -7.286100176203086 C-48.038309275445414 -7.608984590718619, -47.882816336606204 -7.9318690052341525, -47.693162514714004 -8.32568922433503 M-48.193802214284624 -7.286100176203086 C-48.01028897731294 -7.667169339329038, -47.826775740341255 -8.048238502454991, -47.693162514714004 -8.32568922433503 M-47.693162514714004 -8.32568922433503 C-47.491960106446655 -8.68294447416682, -47.290757698179306 -9.040199723998613, -47.12694473409623 -9.331066229589455 M-47.693162514714004 -8.32568922433503 C-47.55622483377706 -8.568835943282398, -47.41928715284011 -8.811982662229765, -47.12694473409623 -9.331066229589455 M-47.12694473409623 -9.331066229589455 C-46.88647848083073 -9.700486968835506, -46.64601222756524 -10.069907708081558, -46.49747558274521 -10.298099882199054 M-47.12694473409623 -9.331066229589455 C-46.89883952951064 -9.681497078656836, -46.67073432492505 -10.031927927724219, -46.49747558274521 -10.298099882199054 M-46.49747558274521 -10.298099882199054 C-46.225686107963 -10.662273017876688, -45.9538966331808 -11.026446153554321, -45.80734168442454 -11.2228164334572 M-46.49747558274521 -10.298099882199054 C-46.35068311391268 -10.494788417365625, -46.20389064508015 -10.691476952532197, -45.80734168442454 -11.2228164334572 M-45.80734168442454 -11.2228164334572 C-45.56310959178435 -11.509705346672137, -45.31887749914414 -11.796594259887073, -45.05937894735568 -12.101416024703695 M-45.80734168442454 -11.2228164334572 C-45.65769361744719 -11.39860156814504, -45.50804555046983 -11.57438670283288, -45.05937894735568 -12.101416024703695 M-45.05937894735568 -12.101416024703695 C-44.774144931692994 -12.395943564023629, -44.4889109160303 -12.69047110334356, -44.25666091086276 -12.930288301759086 M-45.05937894735568 -12.101416024703695 C-44.8698489612329 -12.297121296076721, -44.68031897511011 -12.492826567449747, -44.25666091086276 -12.930288301759086 M-44.25666091086276 -12.930288301759086 C-44.02246872194713 -13.142975451346498, -43.7882765330315 -13.355662600933908, -43.402486115540206 -13.706027250644407 M-44.25666091086276 -12.930288301759086 C-43.98895995561318 -13.173407226337618, -43.721259000363595 -13.41652615091615, -43.402486115540206 -13.706027250644407 M-43.402486115540206 -13.706027250644407 C-43.14624016636414 -13.910376576121235, -42.88999421718807 -14.114725901598064, -42.500364548841894 -14.425445193623215 M-43.402486115540206 -13.706027250644407 C-43.160800895768496 -13.898764781898542, -42.919115675996785 -14.091502313152677, -42.500364548841894 -14.425445193623215 M-42.500364548841894 -14.425445193623215 C-42.31045594762688 -14.557917212819962, -42.12054734641186 -14.69038923201671, -41.554003221789884 -15.085585888053124 M-42.500364548841894 -14.425445193623215 C-42.1666525910434 -14.65822820922562, -41.83294063324492 -14.891011224828022, -41.554003221789884 -15.085585888053124 M-41.554003221789884 -15.085585888053124 C-41.281139956201436 -15.250997203175379, -41.00827669061299 -15.416408518297633, -40.56729093607088 -15.683736674221008 M-41.554003221789884 -15.085585888053124 C-41.23048817781158 -15.281702608898199, -40.90697313383328 -15.477819329743273, -40.56729093607088 -15.683736674221008 M-40.56729093607088 -15.683736674221008 C-40.26727969541234 -15.8402523463062, -39.9672684547538 -15.99676801839139, -39.54428230411605 -16.217439622243543 M-40.56729093607088 -15.683736674221008 C-40.3192304293204 -15.813149681702397, -40.071169922569915 -15.942562689183786, -39.54428230411605 -16.217439622243543 M-39.54428230411605 -16.217439622243543 C-39.259606231812676 -16.3434572748366, -38.9749301595093 -16.469474927429655, -38.48918108782874 -16.684501632228386 M-39.54428230411605 -16.217439622243543 C-39.269794855504266 -16.338947073363116, -38.99530740689248 -16.46045452448269, -38.48918108782874 -16.684501632228386 M-38.48918108782874 -16.684501632228386 C-38.07385754246209 -16.83734453613208, -37.658533997095454 -16.990187440035772, -37.40632292442518 -17.08300344619203 M-38.48918108782874 -16.684501632228386 C-38.08395396145766 -16.83362896061144, -37.67872683508657 -16.98275628899449, -37.40632292442518 -17.08300344619203 M-37.40632292442518 -17.08300344619203 C-37.046356604817554 -17.189839560349807, -36.686390285209924 -17.296675674507583, -36.30015751037115 -17.411307534702523 M-37.40632292442518 -17.08300344619203 C-37.16767119728854 -17.15383402609771, -36.92901947015189 -17.224664606003383, -36.30015751037115 -17.411307534702523 M-36.30015751037115 -17.411307534702523 C-35.91824709556216 -17.49847609468431, -35.536336680753166 -17.5856446546661, -35.175230316624706 -17.668064825839174 M-36.30015751037115 -17.411307534702523 C-36.05088443213749 -17.468202488150503, -35.80161135390382 -17.525097441598483, -35.175230316624706 -17.668064825839174 M-35.175230316624706 -17.668064825839174 C-34.82684539007769 -17.72438899899784, -34.47846046353067 -17.780713172156506, -34.03616391032112 -17.85222024881843 M-35.175230316624706 -17.668064825839174 C-34.812443597881916 -17.726717369072485, -34.44965687913912 -17.7853699123058, -34.03616391032112 -17.85222024881843 M-34.03616391032112 -17.85222024881843 C-33.681094900038964 -17.886473329207387, -33.326025889756814 -17.920726409596345, -32.88763895965283 -17.963017069506055 M-34.03616391032112 -17.85222024881843 C-33.66225318510667 -17.88829096678643, -33.28834245989222 -17.924361684754427, -32.88763895965283 -17.963017069506055 M-32.88763895965283 -17.963017069506055 C-32.52713667271404 -17.97457767617305, -32.16663438577526 -17.98613828284004, -31.734375000000007 -18 M-32.88763895965283 -17.963017069506055 C-32.46820934894858 -17.97646736075113, -32.04877973824433 -17.989917651996205, -31.734375000000007 -18 M-31.734375000000007 -18 C-31.734375000000004 -18, -31.734375000000004 -18, -31.734375 -18 M-31.734375000000007 -18 C-31.734375000000004 -18, -31.734375000000004 -18, -31.734375 -18" stroke="#999" stroke-width="1.3" fill="none" stroke-dasharray="0 0" style=""/></g><g class="label" style="" transform="translate(-37.734375, -10.5)"><rect/><foreignObject width="75.46875" height="21"><div xmlns="http://www.w3.org/1999/xhtml" style="display: table-cell; white-space: nowrap; line-height: 1.5; max-width: 200px; text-align: center;"><span class="nodeLabel"><p>User arrives</p></span></div></foreignObject></g></g><g class="node default" id="my-svg-flowchart-LOGIN-1" data-look="classic" transform="translate(207.546875, 172.0390625)"><polygon points="78.0390625,0 156.078125,-78.0390625 78.0390625,-156.078125 0,-78.0390625" class="label-container" transform="translate(-77.5390625, 78.0390625)"/><g class="label" style="" transform="translate(-52.5390625, -10.5)"><rect/><foreignObject width="105.078125" height="21"><div xmlns="http://www.w3.org/1999/xhtml" style="display: table-cell; white-space: nowrap; line-height: 1.5; max-width: 200px; text-align: center;"><span class="nodeLabel"><p>Has an account?</p></span></div></foreignObject></g></g><g class="node default" id="my-svg-flowchart-INVITE_VERIFY-3" data-look="classic" transform="translate(370.46484375, 346.578125)"><rect class="basic label-container" style="" x="-66.1875" y="-25.5" width="132.375" height="51"/><g class="label" style="" transform="translate(-36.1875, -10.5)"><rect/><foreignObject width="72.375" height="21"><div xmlns="http://www.w3.org/1999/xhtml" style="display: table-cell; white-space: nowrap; line-height: 1.5; max-width: 200px; text-align: center;"><span class="nodeLabel"><p>Verify Invite</p></span></div></foreignObject></g></g><g class="node default" id="my-svg-flowchart-INVITE_SETUP-5" data-look="classic" transform="translate(370.46484375, 468.578125)"><rect class="basic label-container" style="" x="-75.1484375" y="-25.5" width="150.296875" height="51"/><g class="label" style="" transform="translate(-45.1484375, -10.5)"><rect/><foreignObject width="90.296875" height="21"><div xmlns="http://www.w3.org/1999/xhtml" style="display: table-cell; white-space: nowrap; line-height: 1.5; max-width: 200px; text-align: center;"><span class="nodeLabel"><p>Setup Account</p></span></div></foreignObject></g></g><g class="node default" id="my-svg-flowchart-LOGIN_PAGE-7" data-look="classic" transform="translate(163.06640625, 569.578125)"><rect class="basic label-container" style="" x="-65.421875" y="-25.5" width="130.84375" height="51"/><g class="label" style="" transform="translate(-35.421875, -10.5)"><rect/><foreignObject width="70.84375" height="21"><div xmlns="http://www.w3.org/1999/xhtml" style="display: table-cell; white-space: nowrap; line-height: 1.5; max-width: 200px; text-align: center;"><span class="nodeLabel"><p>Login Page</p></span></div></foreignObject></g></g><g class="node default" id="my-svg-flowchart-FORGOT_PWD-9" data-look="classic" transform="translate(162.40234375, 468.578125)"><rect class="basic label-container" style="" x="-82.9140625" y="-25.5" width="165.828125" height="51"/><g class="label" style="" transform="translate(-52.9140625, -10.5)"><rect/><foreignObject width="105.828125" height="21"><div xmlns="http://www.w3.org/1999/xhtml" style="display: table-cell; white-space: nowrap; line-height: 1.5; max-width: 200px; text-align: center;"><span class="nodeLabel"><p>Forgot Password</p></span></div></foreignObject></g></g><g class="node default" id="my-svg-flowchart-AUTH-15" data-look="classic" transform="translate(222.0234375, 746.3203125)"><polygon points="80.2421875,0 160.484375,-80.2421875 80.2421875,-160.484375 0,-80.2421875" class="label-container" transform="translate(-79.7421875, 80.2421875)"/><g class="label" style="" transform="translate(-54.7421875, -10.5)"><rect/><foreignObject width="109.484375" height="21"><div xmlns="http://www.w3.org/1999/xhtml" style="display: table-cell; white-space: nowrap; line-height: 1.5; max-width: 200px; text-align: center;"><span class="nodeLabel"><p>Valid credentials?</p></span></div></foreignObject></g></g><g class="node default" id="my-svg-flowchart-CHECK_PWD-19" data-look="classic" transform="translate(222.0234375, 981.8046875)"><polygon points="84.2421875,0 168.484375,-84.2421875 84.2421875,-168.484375 0,-84.2421875" class="label-container" transform="translate(-83.7421875, 84.2421875)"/><g class="label" style="" transform="translate(-48.2421875, -21)"><rect/><foreignObject width="96.484375" height="42"><div xmlns="http://www.w3.org/1999/xhtml" style="display: table-cell; white-space: nowrap; line-height: 1.5; max-width: 200px; text-align: center;"><span class="nodeLabel"><p>Password reset<br />required?</p></span></div></foreignObject></g></g><g class="node default" id="my-svg-flowchart-RESET_PWD-21" data-look="classic" transform="translate(88.96875, 1162.546875)"><rect class="basic label-container" style="" x="-80.96875" y="-25.5" width="161.9375" height="51"/><g class="label" style="" transform="translate(-50.96875, -10.5)"><rect/><foreignObject width="101.9375" height="21"><div xmlns="http://www.w3.org/1999/xhtml" style="display: table-cell; white-space: nowrap; line-height: 1.5; max-width: 200px; text-align: center;"><span class="nodeLabel"><p>Reset Password</p></span></div></foreignObject></g></g><g class="node default" id="my-svg-flowchart-ROLE_GATE-25" data-look="classic" transform="translate(287.1875, 1162.546875)"><polygon points="0,0 118.5,0 118.5,-36 0,-36 0,0 -8,0 126.5,0 126.5,-36 -8,-36 -8,0" class="label-container" transform="translate(-59.25,18)"/><g class="label" style="" transform="translate(-51.75, -10.5)"><rect/><foreignObject width="103.5" height="21"><div xmlns="http://www.w3.org/1999/xhtml" style="display: table-cell; white-space: nowrap; line-height: 1.5; max-width: 200px; text-align: center;"><span class="nodeLabel"><p>Redirect by Role</p></span></div></foreignObject></g></g></g></g></g><defs><filter id="my-svg-drop-shadow" height="130%" width="130%"><feDropShadow dx="4" dy="4" stdDeviation="0" flood-opacity="0.06" flood-color="#000000"/></filter></defs><defs><filter id="my-svg-drop-shadow-small" height="150%" width="150%"><feDropShadow dx="2" dy="2" stdDeviation="0" flood-opacity="0.06" flood-color="#000000"/></filter></defs><linearGradient id="my-svg-gradient" gradientUnits="objectBoundingBox" x1="0%" y1="0%" x2="100%" y2="0%"><stop offset="0%" stop-color="hsl(0, 0%, 83.3333333333%)" stop-opacity="1"/><stop offset="100%" stop-color="hsl(0, 0%, 88.9215686275%)" stop-opacity="1"/></linearGradient></svg>